<svg width="33" height="31" viewBox="0 0 33 31" fill="none" xmlns="http://www.w3.org/2000/svg">
<rect x="0.5" y="0.5" width="31.0808" height="30" rx="15" fill="#0F111A"/>
<path d="M14.0398 17.1L19.9398 11.2C20.1232 11.0167 20.3565 10.925 20.6398 10.925C20.9232 10.925 21.1565 11.0167 21.3398 11.2C21.5232 11.3833 21.6148 11.6167 21.6148 11.9C21.6148 12.1833 21.5232 12.4167 21.3398 12.6L14.7398 19.2C14.5398 19.4 14.3065 19.5 14.0398 19.5C13.7732 19.5 13.5398 19.4 13.3398 19.2L10.7398 16.6C10.5565 16.4167 10.4648 16.1833 10.4648 15.9C10.4648 15.6167 10.5565 15.3833 10.7398 15.2C10.9232 15.0167 11.1565 14.925 11.4398 14.925C11.7232 14.925 11.9565 15.0167 12.1398 15.2L14.0398 17.1Z" fill="white"/>
<rect x="0.5" y="0.5" width="31.0808" height="30" rx="15" stroke="#0F111A"/>
</svg>
