<svg width="55" height="42" viewBox="0 0 55 42" fill="none" xmlns="http://www.w3.org/2000/svg">
<path fill-rule="evenodd" clip-rule="evenodd" d="M38.8026 19.601C38.8026 26.0522 33.9462 32.0843 27.4194 33.5491C20.8925 32.0843 16.0361 26.0522 16.0361 19.601V14.5335C16.0363 13.9691 16.2046 13.4174 16.5196 12.949C16.8346 12.4807 17.2821 12.1168 17.8049 11.9038L24.9194 8.99721C26.5217 8.34224 28.3171 8.34224 29.9194 8.99721L37.034 11.9038C38.104 12.3414 38.8026 13.38 38.8026 14.5335V19.601Z" fill="#0F111A"/>
<path d="M31.7358 18.3126L26.7556 23.2928L23.7676 20.3047" stroke="white" stroke-width="1.42654" stroke-linecap="round" stroke-linejoin="round"/>
<path d="M27.451 5.35342C28.8319 5.35342 29.9513 4.23399 29.9513 2.8531C29.9513 1.47221 28.8319 0.352783 27.451 0.352783C26.0701 0.352783 24.9507 1.47221 24.9507 2.8531C24.9507 4.23399 26.0701 5.35342 27.451 5.35342Z" fill="#0F111A"/>
<path d="M43.1048 21.0076C43.1048 22.3885 44.2243 23.508 45.6051 23.508C46.986 23.508 48.1055 22.3885 48.1055 21.0076C48.1055 19.6268 46.986 18.5073 45.6051 18.5073C44.2243 18.5073 43.1048 19.6268 43.1048 21.0076Z" fill="#0F111A"/>
<path d="M27.451 41.6625C28.8319 41.6625 29.9513 40.5431 29.9513 39.1622C29.9513 37.7813 28.8319 36.6619 27.451 36.6619C26.0701 36.6619 24.9507 37.7813 24.9507 39.1622C24.9507 40.5431 26.0701 41.6625 27.451 41.6625Z" fill="#0F111A"/>
<path d="M6.79575 21.0076C6.79575 22.3885 7.91518 23.508 9.29607 23.508C10.677 23.508 11.7964 22.3885 11.7964 21.0076C11.7964 19.6268 10.677 18.5073 9.29607 18.5073C7.91518 18.5073 6.79575 19.6268 6.79575 21.0076Z" fill="#0F111A"/>
<path d="M13.0808 3.90716L17.8671 8.69337M10.2415 6.7465L15.0278 11.5327M20.2601 6.3003L17.0693 3.1095M12.6347 13.9258L9.44385 10.735M22.6533 3.90716L21.8556 3.1095M10.2415 16.3189L9.44385 15.5212M13.0808 38.0579L17.8671 33.2717M10.2415 35.2186L15.0278 30.4324M20.2601 35.6648L17.0693 38.8556M12.6347 28.0392L9.44385 31.2301M22.6533 38.0579L21.8556 38.8556M10.2415 25.6462L9.44385 26.4438M42.3139 3.90716L37.5277 8.69337M45.1532 6.7465L40.367 11.5327M35.1345 6.3003L38.3253 3.1095M42.7601 13.9259L45.9509 10.735M32.7415 3.90716L33.5392 3.1095M45.1532 16.3189L45.9509 15.5213M42.3139 38.0579L37.5277 33.2717M45.1532 35.2186L40.367 30.4324M35.1345 35.6648L38.3253 38.8556M42.7601 28.0392L45.9509 31.2301M32.7415 38.0579L33.5392 38.8556M45.1532 25.6462L45.9509 26.4438" stroke="#E1E4E5" stroke-width="1.11077" stroke-linecap="round" stroke-linejoin="round"/>
<path fill-rule="evenodd" clip-rule="evenodd" d="M1.54612 14.904H1.86318C1.93989 14.904 2.00158 14.9663 2.00158 15.0424V15.3594C2.00158 15.4361 1.9392 15.4978 1.86318 15.4978H1.54612C1.50946 15.4977 1.47435 15.483 1.44843 15.4571C1.42251 15.4312 1.40787 15.3961 1.40772 15.3594V15.0424C1.40767 15.0242 1.41122 15.0062 1.41816 14.9893C1.4251 14.9725 1.43529 14.9573 1.44815 14.9444C1.46101 14.9315 1.47629 14.9213 1.4931 14.9144C1.50991 14.9075 1.52793 14.9039 1.54612 14.904ZM2.64548 14.904H2.96253C2.99919 14.9041 3.0343 14.9188 3.06023 14.9447C3.08615 14.9706 3.10078 15.0057 3.10094 15.0424V15.3594C3.10094 15.4361 3.03856 15.4978 2.96253 15.4978H2.64548C2.60882 15.4977 2.5737 15.483 2.54778 15.4571C2.52186 15.4312 2.50723 15.3961 2.50707 15.3594V15.0424C2.50723 15.0057 2.52186 14.9706 2.54778 14.9447C2.5737 14.9188 2.60882 14.9041 2.64548 14.904ZM3.7456 14.904H4.06266C4.09932 14.9041 4.13443 14.9188 4.16035 14.9447C4.18627 14.9706 4.20091 15.0057 4.20107 15.0424V15.3594C4.20107 15.4361 4.13868 15.4978 4.06266 15.4978H3.7456C3.70894 15.4977 3.67383 15.483 3.64791 15.4571C3.62199 15.4312 3.60736 15.3961 3.6072 15.3594V15.0424C3.60715 15.0242 3.6107 15.0062 3.61764 14.9893C3.62458 14.9725 3.63477 14.9573 3.64763 14.9444C3.6605 14.9315 3.67577 14.9213 3.69258 14.9144C3.7094 14.9075 3.72742 14.9039 3.7456 14.904ZM4.84496 14.904H5.16201C5.19867 14.9041 5.23378 14.9188 5.25971 14.9447C5.28563 14.9706 5.30026 15.0057 5.30042 15.0424V15.3594C5.30042 15.4361 5.23804 15.4978 5.16201 15.4978H4.84496C4.80818 15.4979 4.77289 15.4833 4.74682 15.4574C4.72075 15.4314 4.70602 15.3962 4.70587 15.3594V15.0424C4.70627 15.0057 4.72108 14.9706 4.74709 14.9447C4.77311 14.9188 4.80826 14.9042 4.84496 14.904ZM5.9444 14.904H6.26154C6.33817 14.904 6.40055 14.9663 6.40055 15.0424V15.3594C6.40055 15.4361 6.33817 15.4978 6.26154 15.4978H5.9444C5.90774 15.4977 5.87263 15.483 5.84671 15.4571C5.82078 15.4312 5.80615 15.3961 5.80599 15.3594V15.0424C5.80615 15.0057 5.82078 14.9706 5.84671 14.9447C5.87263 14.9188 5.90774 14.9041 5.9444 14.904ZM2.68572 16.1028H3.00278C3.03943 16.1029 3.07455 16.1176 3.10047 16.1435C3.12639 16.1694 3.14102 16.2045 3.14118 16.2412V16.5589C3.14102 16.5956 3.12639 16.6307 3.10047 16.6566C3.07455 16.6825 3.03943 16.6972 3.00278 16.6973H2.68572C2.64902 16.6973 2.61383 16.6827 2.58788 16.6568C2.56193 16.6308 2.54734 16.5956 2.54731 16.5589V16.2419C2.54719 16.2236 2.55068 16.2055 2.55758 16.1886C2.56448 16.1718 2.57466 16.1564 2.58753 16.1435C2.6004 16.1305 2.6157 16.1203 2.63255 16.1133C2.64941 16.1063 2.66748 16.1027 2.68572 16.1028ZM3.78516 16.1028H4.10222C4.13887 16.1029 4.17399 16.1176 4.19991 16.1435C4.22583 16.1694 4.24046 16.2045 4.24062 16.2412V16.5589C4.24046 16.5956 4.22583 16.6307 4.19991 16.6566C4.17399 16.6825 4.13887 16.6972 4.10222 16.6973H3.78516C3.7485 16.6972 3.71339 16.6825 3.68747 16.6566C3.66154 16.6307 3.64691 16.5956 3.64675 16.5589V16.2419C3.64663 16.2236 3.65012 16.2055 3.65702 16.1886C3.66393 16.1718 3.6741 16.1564 3.68697 16.1435C3.69984 16.1305 3.71514 16.1203 3.73199 16.1133C3.74885 16.1063 3.76692 16.1027 3.78516 16.1028ZM4.88469 16.1028H5.20174C5.23852 16.1027 5.27381 16.1173 5.29988 16.1432C5.32595 16.1692 5.34068 16.2044 5.34083 16.2412V16.5589C5.34068 16.5957 5.32595 16.6309 5.29988 16.6568C5.27381 16.6828 5.23852 16.6973 5.20174 16.6973H4.88469C4.84803 16.6972 4.81292 16.6825 4.78699 16.6566C4.76107 16.6307 4.74644 16.5956 4.74628 16.5589V16.2419C4.74626 16.2051 4.76081 16.1698 4.78675 16.1437C4.81269 16.1177 4.84791 16.1029 4.88469 16.1028ZM3.7456 13.6161H4.06266C4.09932 13.6162 4.13443 13.6309 4.16035 13.6568C4.18627 13.6827 4.20091 13.7178 4.20107 13.7545V14.0716C4.20107 14.1483 4.13868 14.21 4.06266 14.21H3.7456C3.70894 14.2098 3.67383 14.1952 3.64791 14.1692C3.62199 14.1433 3.60736 14.1082 3.6072 14.0716V13.7545C3.60715 13.7363 3.6107 13.7183 3.61764 13.7015C3.62458 13.6847 3.63477 13.6694 3.64763 13.6565C3.6605 13.6437 3.67577 13.6335 3.69258 13.6265C3.7094 13.6196 3.72742 13.616 3.7456 13.6161ZM4.84496 13.6161H5.16201C5.19867 13.6162 5.23378 13.6309 5.25971 13.6568C5.28563 13.6827 5.30026 13.7178 5.30042 13.7545V14.0716C5.30042 14.1483 5.23804 14.21 5.16201 14.21H4.84496C4.80818 14.21 4.77289 14.1954 4.74682 14.1695C4.72075 14.1435 4.70602 14.1083 4.70587 14.0716V13.7545C4.70627 13.7178 4.72108 13.6827 4.74709 13.6568C4.77311 13.6309 4.80826 13.6163 4.84496 13.6161ZM49.7776 24.5902H50.0948C50.1714 24.5902 50.2332 24.6526 50.2332 24.7287V25.0457C50.2332 25.1224 50.1708 25.1841 50.0948 25.1841H49.7776C49.741 25.184 49.7058 25.1693 49.6799 25.1434C49.654 25.1175 49.6394 25.0824 49.6392 25.0457V24.7287C49.6392 24.7105 49.6427 24.6925 49.6497 24.6756C49.6566 24.6588 49.6668 24.6436 49.6797 24.6307C49.6925 24.6178 49.7078 24.6077 49.7246 24.6007C49.7414 24.5938 49.7594 24.5902 49.7776 24.5902ZM50.877 24.5902H51.194C51.2307 24.5904 51.2658 24.605 51.2917 24.631C51.3176 24.6569 51.3323 24.692 51.3324 24.7287V25.0457C51.3324 25.1224 51.27 25.1841 51.194 25.1841H50.877C50.8403 25.184 50.8052 25.1693 50.7793 25.1434C50.7534 25.1175 50.7387 25.0824 50.7386 25.0457V24.7287C50.7387 24.692 50.7534 24.6569 50.7793 24.631C50.8052 24.605 50.8403 24.5904 50.877 24.5902ZM51.9771 24.5902H52.2942C52.3308 24.5904 52.3659 24.605 52.3918 24.631C52.4178 24.6569 52.4324 24.692 52.4326 24.7287V25.0457C52.4326 25.1224 52.3702 25.1841 52.2942 25.1841H51.9771C51.9404 25.184 51.9053 25.1693 51.8794 25.1434C51.8535 25.1175 51.8388 25.0824 51.8387 25.0457V24.7287C51.8386 24.7105 51.8422 24.6924 51.8491 24.6756C51.8561 24.6588 51.8663 24.6435 51.8791 24.6307C51.892 24.6178 51.9073 24.6076 51.9241 24.6007C51.9409 24.5937 51.9589 24.5902 51.9771 24.5902ZM53.0765 24.5902H53.3936C53.4303 24.5904 53.4654 24.605 53.4913 24.631C53.5172 24.6569 53.5318 24.692 53.532 24.7287V25.0457C53.532 25.1224 53.4696 25.1841 53.3936 25.1841H53.0765C53.0397 25.1841 53.0044 25.1696 52.9784 25.1436C52.9523 25.1177 52.9376 25.0825 52.9374 25.0457V24.7287C52.9378 24.692 52.9526 24.6569 52.9786 24.631C53.0046 24.6051 53.0398 24.5905 53.0765 24.5902ZM54.176 24.5902H54.493C54.5298 24.5902 54.5651 24.6048 54.5912 24.6307C54.6172 24.6567 54.632 24.6919 54.6321 24.7287V25.0457C54.6321 25.1224 54.5697 25.1841 54.493 25.1841H54.176C54.1393 25.184 54.1042 25.1693 54.0783 25.1434C54.0524 25.1175 54.0377 25.0824 54.0376 25.0457V24.7287C54.0377 24.692 54.0524 24.6569 54.0783 24.631C54.1042 24.605 54.1393 24.5904 54.176 24.5902ZM50.9173 25.7891H51.2344C51.271 25.7892 51.3061 25.8038 51.332 25.8298C51.358 25.8557 51.3726 25.8908 51.3728 25.9275V26.2452C51.3726 26.2819 51.358 26.317 51.332 26.3429C51.3061 26.3688 51.271 26.3834 51.2344 26.3836H50.9173C50.8806 26.3836 50.8454 26.369 50.8195 26.343C50.7935 26.3171 50.7789 26.2819 50.7789 26.2452V25.9281C50.7788 25.9099 50.7823 25.8918 50.7892 25.8749C50.7961 25.858 50.8062 25.8427 50.8191 25.8298C50.832 25.8168 50.8473 25.8066 50.8641 25.7996C50.881 25.7926 50.8991 25.789 50.9173 25.7891ZM52.0167 25.7891H52.3338C52.3705 25.7892 52.4056 25.8038 52.4315 25.8298C52.4574 25.8557 52.472 25.8908 52.4722 25.9275V26.2452C52.472 26.2819 52.4574 26.317 52.4315 26.3429C52.4056 26.3688 52.3705 26.3834 52.3338 26.3836H52.0167C51.98 26.3834 51.9449 26.3688 51.919 26.3429C51.893 26.317 51.8784 26.2819 51.8782 26.2452V25.9281C51.8781 25.9099 51.8817 25.8918 51.8886 25.875C51.8955 25.8581 51.9057 25.8427 51.9185 25.8298C51.9314 25.8169 51.9467 25.8066 51.9635 25.7996C51.9804 25.7926 51.9984 25.789 52.0167 25.7891ZM53.1162 25.7891H53.4332C53.47 25.789 53.5053 25.8036 53.5314 25.8295C53.5574 25.8555 53.5722 25.8907 53.5723 25.9275V26.2452C53.5722 26.282 53.5574 26.3172 53.5314 26.3431C53.5053 26.3691 53.47 26.3836 53.4332 26.3836H53.1162C53.0795 26.3834 53.0444 26.3688 53.0185 26.3429C52.9926 26.317 52.9779 26.2819 52.9778 26.2452V25.9281C52.9778 25.8914 52.9923 25.8561 53.0182 25.83C53.0442 25.8039 53.0794 25.7892 53.1162 25.7891ZM51.9771 23.3023H52.2942C52.3308 23.3024 52.3659 23.3171 52.3918 23.343C52.4178 23.3689 52.4324 23.404 52.4326 23.4407V23.7578C52.4326 23.8345 52.3702 23.8962 52.2942 23.8962H51.9771C51.9404 23.8961 51.9053 23.8815 51.8794 23.8555C51.8535 23.8296 51.8388 23.7945 51.8387 23.7578V23.4407C51.8386 23.4225 51.8422 23.4045 51.8491 23.3877C51.8561 23.3709 51.8663 23.3556 51.8791 23.3427C51.892 23.3299 51.9073 23.3197 51.9241 23.3127C51.9409 23.3058 51.9589 23.3022 51.9771 23.3023ZM53.0765 23.3023H53.3936C53.4303 23.3024 53.4654 23.3171 53.4913 23.343C53.5172 23.3689 53.5318 23.404 53.532 23.4407V23.7578C53.532 23.8345 53.4696 23.8962 53.3936 23.8962H53.0765C53.0397 23.8962 53.0044 23.8817 52.9784 23.8557C52.9523 23.8298 52.9376 23.7946 52.9374 23.7578V23.4407C52.9378 23.404 52.9526 23.3689 52.9786 23.343C53.0046 23.3171 53.0398 23.3025 53.0765 23.3023Z" fill="#E1E4E5"/>
<path d="M51.9703 13.3938C53.383 13.0591 54.8772 14.2572 54.8772 14.2572C54.8772 14.2572 54.0798 15.9973 52.6667 16.3309C51.254 16.6656 49.7603 15.4685 49.7603 15.4685C49.7603 15.4685 50.5576 13.7285 51.9703 13.3938Z" fill="url(#paint0_linear_170_5029)"/>
<path d="M6.40065 2.03252C6.84171 2.03252 7.19926 2.31853 7.19926 2.67135C7.19926 3.02417 6.84171 3.31018 6.40065 3.31018C5.9596 3.31018 5.60205 3.02417 5.60205 2.67135C5.60205 2.31853 5.9596 2.03252 6.40065 2.03252Z" fill="#E1E4E5"/>
<path d="M0.330538 29.2067C0.148103 28.5259 0.552153 27.826 1.23301 27.6436C1.91387 27.4612 2.6137 27.8652 2.79614 28.5461C2.97857 29.2269 2.57452 29.9268 1.89367 30.1092C1.21281 30.2916 0.512973 29.8876 0.330538 29.2067Z" fill="#E1E4E5"/>
<path d="M50.2597 35.1982C50.1482 34.7823 50.395 34.3547 50.811 34.2433C51.227 34.1318 51.6545 34.3787 51.766 34.7946C51.8774 35.2106 51.6306 35.6381 51.2146 35.7496C50.7987 35.8611 50.3711 35.6142 50.2597 35.1982Z" fill="#E1E4E5"/>
<defs>
<linearGradient id="paint0_linear_170_5029" x1="57.2902" y1="12.5617" x2="44.9233" y2="18.4042" gradientUnits="userSpaceOnUse">
<stop stop-color="white"/>
<stop offset="1" stop-color="#EEEEEE"/>
</linearGradient>
</defs>
</svg>
