<svg width="25" height="25" viewBox="0 0 25 25" fill="none" xmlns="http://www.w3.org/2000/svg">
<path d="M12.5146 7.4C13.9346 7.4 14.6446 7.94 14.9046 8.8C15.0346 9.23 15.4646 9.5 15.9146 9.5H15.9746C16.6746 9.5 17.1946 8.79 16.9446 8.14C16.5046 6.99 15.5346 6.06 14.0146 5.69V5C14.0146 4.17 13.3446 3.5 12.5146 3.5C11.6846 3.5 11.0146 4.17 11.0146 5V5.66C10.6246 5.74 10.2646 5.87 9.91463 6.02L11.4246 7.53C11.7446 7.45 12.1146 7.4 12.5146 7.4ZM4.78463 5.12C4.69193 5.21251 4.61838 5.3224 4.5682 5.44338C4.51802 5.56435 4.49219 5.69403 4.49219 5.825C4.49219 5.95597 4.51802 6.08565 4.5682 6.20662C4.61838 6.3276 4.69193 6.43749 4.78463 6.53L7.51463 9.27C7.51463 11.35 9.07463 12.49 11.4246 13.18L14.9346 16.69C14.5946 17.18 13.8846 17.6 12.5146 17.6C10.8646 17.6 10.0146 17.01 9.68463 16.17C9.53463 15.78 9.19463 15.5 8.78463 15.5H8.61463C7.89463 15.5 7.37463 16.24 7.66463 16.89C8.25463 18.22 9.55463 19.01 11.0246 19.33V20C11.0246 20.83 11.6946 21.5 12.5246 21.5C13.3546 21.5 14.0246 20.83 14.0246 20V19.35C14.9846 19.17 15.8546 18.8 16.4846 18.23L17.9946 19.74C18.0872 19.8326 18.1971 19.906 18.3181 19.9561C18.4391 20.0062 18.5687 20.032 18.6996 20.032C18.8306 20.032 18.9602 20.0062 19.0812 19.9561C19.2021 19.906 19.312 19.8326 19.4046 19.74C19.4972 19.6474 19.5707 19.5375 19.6208 19.4165C19.6709 19.2956 19.6967 19.1659 19.6967 19.035C19.6967 18.9041 19.6709 18.7744 19.6208 18.6535C19.5707 18.5325 19.4972 18.4226 19.4046 18.33L6.19463 5.12C6.10212 5.0273 5.99223 4.95375 5.87126 4.90357C5.75028 4.85339 5.6206 4.82756 5.48963 4.82756C5.35866 4.82756 5.22898 4.85339 5.10801 4.90357C4.98703 4.95375 4.87715 5.0273 4.78463 5.12Z" fill="#FA536E"/>
</svg>
