<svg width="25" height="25" viewBox="0 0 25 25" fill="none" xmlns="http://www.w3.org/2000/svg">
<path d="M13.6854 11.7L12.2354 10.275C12.0354 10.0917 11.802 10 11.5354 10C11.2687 10 11.0354 10.1 10.8354 10.3C10.652 10.4833 10.5604 10.7167 10.5604 11C10.5604 11.2833 10.652 11.5167 10.8354 11.7L12.9854 13.85C13.1687 14.0333 13.402 14.125 13.6854 14.125C13.9687 14.125 14.202 14.0333 14.3854 13.85L18.6354 9.6C18.8354 9.4 18.9354 9.16234 18.9354 8.887C18.9354 8.61167 18.8354 8.37434 18.6354 8.175C18.4354 7.975 18.198 7.875 17.9234 7.875C17.6487 7.875 17.411 7.975 17.2104 8.175L13.6854 11.7ZM8.98535 18.5C8.43535 18.5 7.96435 18.304 7.57235 17.912C7.18035 17.52 6.98469 17.0493 6.98535 16.5V4.5C6.98535 3.95 7.18135 3.479 7.57335 3.087C7.96535 2.695 8.43602 2.49934 8.98535 2.5H20.9854C21.5354 2.5 22.0064 2.696 22.3984 3.088C22.7904 3.48 22.986 3.95067 22.9854 4.5V16.5C22.9854 17.05 22.7894 17.521 22.3974 17.913C22.0054 18.305 21.5347 18.5007 20.9854 18.5H8.98535ZM4.98535 22.5C4.43535 22.5 3.96435 22.304 3.57235 21.912C3.18035 21.52 2.98469 21.0493 2.98535 20.5V7.5C2.98535 7.21667 3.08135 6.979 3.27335 6.787C3.46535 6.595 3.70269 6.49934 3.98535 6.5C4.26869 6.5 4.50635 6.596 4.69835 6.788C4.89035 6.98 4.98602 7.21734 4.98535 7.5V20.5H17.9854C18.2687 20.5 18.5064 20.596 18.6984 20.788C18.8904 20.98 18.986 21.2173 18.9854 21.5C18.9854 21.7833 18.8894 22.021 18.6974 22.213C18.5054 22.405 18.268 22.5007 17.9854 22.5H4.98535Z" fill="#FA536E"/>
</svg>
