<svg width="24" height="24" viewBox="0 0 24 24" fill="none" xmlns="http://www.w3.org/2000/svg">
<path d="M12 22C9.68333 21.4167 7.77067 20.0873 6.262 18.012C4.75333 15.9367 3.99933 13.6327 4 11.1V5L12 2L20 5V11.1C20 13.6333 19.2457 15.9377 17.737 18.013C16.2283 20.0883 14.316 21.4173 12 22ZM10 16H14C14.2833 16 14.521 15.904 14.713 15.712C14.905 15.52 15.0007 15.2827 15 15V12C15 11.7167 14.904 11.479 14.712 11.287C14.52 11.095 14.2827 10.9993 14 11V10C14 9.45 13.804 8.979 13.412 8.587C13.02 8.195 12.5493 7.99933 12 8C11.45 8 10.979 8.196 10.587 8.588C10.195 8.98 9.99933 9.45067 10 10V11C9.71667 11 9.479 11.096 9.287 11.288C9.095 11.48 8.99933 11.7173 9 12V15C9 15.2833 9.096 15.521 9.288 15.713C9.48 15.905 9.71733 16.0007 10 16ZM11 11V10C11 9.71667 11.096 9.479 11.288 9.287C11.48 9.095 11.7173 8.99933 12 9C12.2833 9 12.521 9.096 12.713 9.288C12.905 9.48 13.0007 9.71733 13 10V11H11Z" fill="#FA536E"/>
</svg>
