<svg width="16" height="19" viewBox="0 0 16 19" fill="none" xmlns="http://www.w3.org/2000/svg">
<path d="M8.51463 4.40006C9.93463 4.40006 10.6446 4.94006 10.9046 5.80006C11.0346 6.23006 11.4646 6.50006 11.9146 6.50006H11.9746C12.6746 6.50006 13.1946 5.79006 12.9446 5.14006C12.5046 3.99006 11.5346 3.06006 10.0146 2.69006V2.00006C10.0146 1.17006 9.34463 0.500061 8.51463 0.500061C7.68463 0.500061 7.01463 1.17006 7.01463 2.00006V2.66006C6.62463 2.74006 6.26463 2.87006 5.91463 3.02006L7.42463 4.53006C7.74463 4.45006 8.11463 4.40006 8.51463 4.40006ZM0.784632 2.12006C0.691928 2.21257 0.618381 2.32246 0.568199 2.44344C0.518018 2.56441 0.492188 2.69409 0.492188 2.82506C0.492188 2.95603 0.518018 3.08571 0.568199 3.20669C0.618381 3.32766 0.691928 3.43755 0.784632 3.53006L3.51463 6.27006C3.51463 8.35006 5.07463 9.49006 7.42463 10.1801L10.9346 13.6901C10.5946 14.1801 9.88463 14.6001 8.51463 14.6001C6.86463 14.6001 6.01463 14.0101 5.68463 13.1701C5.53463 12.7801 5.19463 12.5001 4.78463 12.5001H4.61463C3.89463 12.5001 3.37463 13.2401 3.66463 13.8901C4.25463 15.2201 5.55463 16.0101 7.02463 16.3301V17.0001C7.02463 17.8301 7.69463 18.5001 8.52463 18.5001C9.35463 18.5001 10.0246 17.8301 10.0246 17.0001V16.3501C10.9846 16.1701 11.8546 15.8001 12.4846 15.2301L13.9946 16.7401C14.0872 16.8326 14.1971 16.9061 14.3181 16.9562C14.4391 17.0063 14.5687 17.0321 14.6996 17.0321C14.8306 17.0321 14.9602 17.0063 15.0812 16.9562C15.2021 16.9061 15.312 16.8326 15.4046 16.7401C15.4972 16.6475 15.5707 16.5376 15.6208 16.4166C15.6709 16.2956 15.6967 16.166 15.6967 16.0351C15.6967 15.9041 15.6709 15.7745 15.6208 15.6535C15.5707 15.5326 15.4972 15.4226 15.4046 15.3301L2.19463 2.12006C2.10212 2.02736 1.99223 1.95381 1.87126 1.90363C1.75028 1.85345 1.6206 1.82762 1.48963 1.82762C1.35866 1.82762 1.22898 1.85345 1.10801 1.90363C0.987034 1.95381 0.877145 2.02736 0.784632 2.12006Z" fill="#FA536E"/>
</svg>
