<svg width="80" height="80" viewBox="0 0 80 80" fill="none" xmlns="http://www.w3.org/2000/svg">
<rect width="80" height="80" rx="5.14286" fill="#FFD9CC"/>
<path d="M32.5101 26.0504H53.1864C54.4546 26.0504 55.4841 27.0799 55.4841 28.3481V41.9162C55.4841 43.1861 54.4546 44.2139 53.1864 44.2139H32.5101C31.2419 44.2156 30.2124 43.1861 30.2124 41.9162V28.3481C30.2124 27.0799 31.2419 26.0504 32.5101 26.0504Z" stroke="#0F111A" stroke-width="0.342857" stroke-linecap="round" stroke-linejoin="round"/>
<path d="M30.3818 27.6251L40.8546 35.1161C42.0314 35.9576 43.6129 35.9593 44.7914 35.1195L55.3133 27.615M49.7767 47.5491H30.1892C28.3182 47.5491 26.8027 46.0337 26.8027 44.1626V31.6851" stroke="#0F111A" stroke-width="0.342857" stroke-linecap="round" stroke-linejoin="round"/>
<path d="M47.2684 50.3889H27.6809C25.8099 50.3889 24.2944 48.8735 24.2944 47.0024V34.5248" stroke="#E1E4E5" stroke-width="0.342857" stroke-linecap="round" stroke-linejoin="round"/>
<path d="M56.7448 51.7095C58.1123 50.0833 60.5146 47.4297 59.1841 49.8246C57.5209 52.8182 60.5701 50.8224 61.6234 49.8246C62.6767 48.8267 65.1715 48.106 63.3974 50.7116C61.6234 53.3172 66.7237 51.765 67.6662 49.8246M49.7923 59.6412C51.1597 58.0151 53.5621 55.3614 52.2316 57.7563C50.5684 60.75 53.6175 58.7543 54.6709 57.7563C55.7242 56.7584 58.2189 56.0377 56.4449 58.6434C54.6709 61.249 59.7712 59.6967 60.7136 57.7563M15.2286 57.4175C16.5961 55.7913 18.9984 53.1377 17.6678 55.5326C16.0047 58.5263 19.0538 56.5305 20.1072 55.5326C21.1604 54.5347 23.6551 53.814 21.8811 56.4196C20.1072 59.0252 25.2074 57.4729 26.1499 55.5326M33.9319 58.9842C35.2993 57.3581 37.7017 54.7044 36.3711 57.0994C34.708 60.093 37.7571 58.0973 38.8104 57.0994C39.8637 56.1015 42.3584 55.3808 40.5844 57.9864C38.8104 60.592 43.9107 59.0397 44.8531 57.0994M7 38.0003C8.36749 36.3741 10.7698 33.7205 9.43926 36.1154C7.77614 39.1091 10.8253 37.1133 11.8786 36.1154C12.9319 35.1175 15.4266 34.3968 13.6525 37.0024C11.8786 39.608 16.9789 38.0557 17.9213 36.1154M7 48.4781C8.36749 46.8518 10.7698 44.1982 9.43926 46.5931C7.77614 49.5868 10.8253 47.591 11.8786 46.5931C12.9319 45.5952 15.4266 44.8746 13.6525 47.4802C11.8786 50.0857 16.9789 48.5334 17.9213 46.5931M60.8575 40.0566C62.225 38.4305 64.6273 35.7768 63.2969 38.1718C61.6337 41.1654 64.6828 39.1697 65.7361 38.1718C66.7895 37.1739 69.2842 36.4532 67.5102 39.0588C65.7361 41.6644 70.8365 40.1121 71.7789 38.1718M13.365 28.8935C14.7325 27.2673 17.1348 24.6137 15.8042 27.0085C14.1411 30.0023 17.1902 28.0064 18.2436 27.0085C19.2969 26.0106 21.7916 25.29 20.0176 27.8956C18.2436 30.5012 23.3438 28.9489 24.2863 27.0085M60.8575 28.9914C62.225 27.3652 64.6273 24.7116 63.2969 27.1065C61.6337 30.1002 64.6828 28.1044 65.7361 27.1065C66.7895 26.1086 69.2842 25.3879 67.5102 27.9935C65.7361 30.5991 70.8364 29.0468 71.7789 27.1065" stroke="#E1E4E5" stroke-width="0.342857"/>
<path fill-rule="evenodd" clip-rule="evenodd" d="M42.8712 40.6C39.5814 40.6 36.9141 37.9326 36.9141 34.6428C36.9141 31.353 39.5814 28.6857 42.8712 28.6857C46.161 28.6857 48.8283 31.353 48.8283 34.6428C48.8283 37.9326 46.161 40.6 42.8712 40.6Z" fill="#01A681"/>
<path d="M44.583 33.8273L42.4476 36.0021L41.1655 34.6974" stroke="white" stroke-width="0.685714" stroke-linecap="round" stroke-linejoin="round"/>
<path d="M61.2328 24.593C60.3271 25.491 58.6583 25.2773 58.6583 25.2773C58.6583 25.2773 58.4589 23.6077 59.3654 22.7103C60.2711 21.8123 61.9391 22.0254 61.9391 22.0254C61.9391 22.0254 62.1384 23.695 61.2328 24.593Z" fill="url(#paint0_linear_170_5048)"/>
<path d="M68.9631 46.8114C69.5384 46.4175 69.5953 45.4993 69.5953 45.4993C69.5953 45.4993 68.7193 45.2206 68.1441 45.6151C67.5688 46.0092 67.5117 46.9268 67.5117 46.9268C67.5117 46.9268 68.3878 47.2055 68.9631 46.8114Z" fill="url(#paint1_linear_170_5048)"/>
<path d="M15.6165 43.4279C16.538 44.3658 18.2613 44.168 18.2613 44.168C18.2613 44.168 18.4894 42.4495 17.5669 41.5121C16.6454 40.5742 14.923 40.7714 14.923 40.7714C14.923 40.7714 14.6949 42.4899 15.6165 43.4279Z" fill="url(#paint2_linear_170_5048)"/>
<path d="M58.2626 42.0119C57.7488 42.0119 57.3324 42.4283 57.3324 42.9421C57.3324 43.4559 57.7488 43.8724 58.2626 43.8724C58.7764 43.8724 59.1929 43.4559 59.1929 42.9421C59.1929 42.4283 58.7764 42.0119 58.2626 42.0119Z" fill="#0F111A"/>
<path d="M10.427 39.7596C9.88625 39.7596 9.44785 40.198 9.44785 40.7388C9.44785 41.2796 9.88625 41.718 10.427 41.718C10.9678 41.718 11.4062 41.2796 11.4062 40.7388C11.4062 40.198 10.9678 39.7596 10.427 39.7596Z" fill="#0F111A"/>
<path d="M21.7533 24.8088C21.2308 24.8088 20.8073 24.3852 20.8073 23.8628C20.8073 23.3404 21.2308 22.9169 21.7533 22.9169C22.2757 22.9169 22.6992 23.3404 22.6992 23.8628C22.6992 24.3852 22.2757 24.8088 21.7533 24.8088Z" fill="#0F111A"/>
<path d="M47.8 23.8534C47.232 23.8534 46.7715 23.3929 46.7715 22.8248C46.7715 22.2567 47.232 21.7962 47.8 21.7962C48.3681 21.7962 48.8286 22.2567 48.8286 22.8248C48.8286 23.3929 48.3681 23.8534 47.8 23.8534Z" fill="#0F111A"/>
<path d="M60.2773 31.8365C59.8717 31.8365 59.5429 31.5077 59.5429 31.1021C59.5429 30.6965 59.8717 30.3677 60.2773 30.3677C60.6829 30.3677 61.0117 30.6965 61.0117 31.1021C61.0117 31.5077 60.6829 31.8365 60.2773 31.8365Z" fill="#E1E4E5"/>
<path d="M9.44701 49.8456C9.01485 49.8456 8.66452 49.4953 8.66452 49.0632C8.66452 48.631 9.01485 48.2807 9.44701 48.2807C9.87916 48.2807 10.2295 48.631 10.2295 49.0632C10.2295 49.4953 9.87916 49.8456 9.44701 49.8456Z" fill="white"/>
<path d="M21.1409 32.9853C20.7942 32.9853 20.5132 32.7043 20.5132 32.3576C20.5132 32.0109 20.7942 31.7299 21.1409 31.7299C21.4875 31.7299 21.7686 32.0109 21.7686 32.3576C21.7686 32.7043 21.4875 32.9853 21.1409 32.9853Z" fill="#E1E4E5"/>
<path d="M54.9142 23.5105C54.5828 23.5105 54.3142 23.2419 54.3142 22.9105C54.3142 22.5791 54.5828 22.3105 54.9142 22.3105C55.2455 22.3105 55.5142 22.5791 55.5142 22.9105C55.5142 23.2419 55.2455 23.5105 54.9142 23.5105Z" fill="#E1E4E5"/>
<path d="M15.6672 38.8525C15.7568 39.1868 15.5584 39.5304 15.2241 39.62C14.8898 39.7095 14.5462 39.5111 14.4566 39.1768C14.367 38.8425 14.5654 38.4989 14.8997 38.4093C15.234 38.3198 15.5777 38.5182 15.6672 38.8525Z" fill="white"/>
<path d="M28.0058 24.78C27.5454 24.78 27.1722 24.4067 27.1722 23.9464C27.1722 23.486 27.5454 23.1128 28.0058 23.1128C28.4662 23.1128 28.8394 23.486 28.8394 23.9464C28.8394 24.4067 28.4662 24.78 28.0058 24.78Z" fill="#E1E4E5"/>
<path d="M66.0517 49.9635C65.5336 50.2163 64.9519 50.0896 64.7524 49.6806C64.5529 49.2716 64.8111 48.7352 65.3291 48.4825C65.8471 48.2297 66.4288 48.3564 66.6284 48.7654C66.8279 49.1744 66.5697 49.7108 66.0517 49.9635Z" fill="white"/>
<path d="M39.2312 20.1722C39.4047 20.8196 39.0205 21.485 38.3731 21.6585C37.7257 21.8319 37.0603 21.4478 36.8868 20.8004C36.7134 20.153 37.0976 19.4876 37.7449 19.3141C38.3923 19.1406 39.0578 19.5248 39.2312 20.1722Z" fill="#E1E4E5"/>
<path d="M53.4839 47.4955H53.5006C53.5999 48.9029 54.6467 48.9246 54.6467 48.9246C54.6467 48.9246 53.4924 48.9472 53.4924 50.5734C53.4924 48.9472 52.3382 48.9246 52.3382 48.9246C52.3382 48.9246 53.3845 48.9029 53.4839 47.4955ZM32.5026 20.8605H32.5147C32.5863 21.8904 33.3412 21.9062 33.3412 21.9062C33.3412 21.9062 32.5088 21.9227 32.5088 23.1127C32.5088 21.9227 31.6764 21.9062 31.6764 21.9062C31.6764 21.9062 32.431 21.8904 32.5026 20.8605ZM15.7578 31.1424H15.7699C15.8415 32.1723 16.5963 32.1881 16.5963 32.1881C16.5963 32.1881 15.764 32.2046 15.764 33.3947C15.764 32.2046 14.9316 32.1881 14.9316 32.1881C14.9316 32.1881 15.6862 32.1723 15.7578 31.1424Z" fill="#E1E4E5"/>
<path d="M67.7934 55.3506C66.3452 55.0076 64.8135 56.2358 64.8135 56.2358C64.8135 56.2358 65.6308 58.0196 67.0795 58.3616C68.5277 58.7047 70.059 57.4775 70.059 57.4775C70.059 57.4775 69.2416 55.6937 67.7934 55.3506Z" fill="url(#paint3_linear_170_5048)"/>
<path d="M65.3401 33.3813C65.9154 33.7753 65.9723 34.6935 65.9723 34.6935C65.9723 34.6935 65.0962 34.9721 64.5211 34.5777C63.9458 34.1837 63.8887 33.266 63.8887 33.266C63.8887 33.266 64.7648 32.9873 65.3401 33.3813Z" fill="url(#paint4_linear_170_5048)"/>
<path d="M19.6033 51.7507C20.0751 51.2704 20.9575 51.3717 20.9575 51.3717C20.9575 51.3717 21.0743 52.2516 20.602 52.7316C20.1301 53.2119 19.2481 53.1109 19.2481 53.1109C19.2481 53.1109 19.1314 52.231 19.6033 51.7507Z" fill="url(#paint5_linear_170_5048)"/>
<path d="M71.8739 35.1572C71.2519 35.1572 70.7478 34.653 70.7478 34.0311C70.7478 33.4091 71.2519 32.905 71.8739 32.905C72.4958 32.905 73 33.4091 73 34.0311C73 34.653 72.4958 35.1572 71.8739 35.1572Z" fill="#0F111A"/>
<path d="M28.1056 59.6663C27.5378 59.6663 27.0775 59.206 27.0775 58.6382C27.0775 58.0704 27.5378 57.6101 28.1056 57.6101C28.6735 57.6101 29.1338 58.0704 29.1338 58.6382C29.1338 59.206 28.6735 59.6663 28.1056 59.6663Z" fill="#0F111A"/>
<path d="M21.1431 46.5677C20.6224 46.5677 20.2002 46.9898 20.2002 47.5105C20.2002 48.0313 20.6224 48.4534 21.1431 48.4534C21.6638 48.4534 22.0859 48.0313 22.0859 47.5105C22.0859 46.9898 21.6638 46.5677 21.1431 46.5677Z" fill="#0F111A"/>
<path d="M49.7587 52.3962C49.2449 52.3962 48.8285 52.8127 48.8285 53.3265C48.8285 53.8403 49.2449 54.2567 49.7587 54.2567C50.2725 54.2567 50.689 53.8403 50.689 53.3265C50.689 52.8127 50.2725 52.3962 49.7587 52.3962Z" fill="#0F111A"/>
<path d="M61.6899 44.8397C61.2843 44.8397 60.9555 45.1685 60.9555 45.5741C60.9555 45.9797 61.2843 46.3085 61.6899 46.3085C62.0955 46.3085 62.4243 45.9797 62.4243 45.5741C62.4243 45.1685 62.0955 44.8397 61.6899 44.8397Z" fill="#E1E4E5"/>
<path d="M10.2307 30.4451C9.79854 30.4451 9.44821 30.7954 9.44821 31.2276C9.44821 31.6597 9.79854 32.01 10.2307 32.01C10.6629 32.01 11.0132 31.6597 11.0132 31.2276C11.0132 30.7954 10.6629 30.4451 10.2307 30.4451Z" fill="white"/>
<path d="M20.656 39.1962C20.3093 39.1962 20.0283 39.4773 20.0283 39.8239C20.0283 40.1706 20.3093 40.4516 20.656 40.4516C21.0027 40.4516 21.2837 40.1706 21.2837 39.8239C21.2837 39.4773 21.0027 39.1962 20.656 39.1962Z" fill="#E1E4E5"/>
<path d="M59.9551 53.8604C59.426 53.8604 58.997 54.2893 58.997 54.8184C58.997 55.3475 59.426 55.7765 59.9551 55.7765C60.4842 55.7765 60.9131 55.3475 60.9131 54.8184C60.9131 54.2893 60.4842 53.8604 59.9551 53.8604Z" fill="#E1E4E5"/>
<path d="M29.8696 54.0704C29.4092 54.0704 29.036 54.4436 29.036 54.904C29.036 55.3643 29.4092 55.7375 29.8696 55.7375C30.3299 55.7375 30.7031 55.3643 30.7031 54.904C30.7031 54.4436 30.3299 54.0704 29.8696 54.0704Z" fill="#E1E4E5"/>
<path d="M66.8358 30.327C66.3178 30.0742 65.7361 30.2009 65.5366 30.6099C65.3371 31.0189 65.5952 31.5553 66.1133 31.8081C66.6313 32.0608 67.213 31.9341 67.4126 31.5251C67.6121 31.1161 67.3539 30.5797 66.8358 30.327Z" fill="white"/>
<path d="M45.3254 54.487C45.449 54.0255 45.1751 53.5511 44.7136 53.4275C44.2521 53.3038 43.7777 53.5777 43.6541 54.0392C43.5304 54.5007 43.8043 54.9751 44.2658 55.0987C44.7273 55.2224 45.2017 54.9485 45.3254 54.487Z" fill="#E1E4E5"/>
<path d="M65.2346 44.2085H65.2514C65.3508 42.801 66.3975 42.7793 66.3975 42.7793C66.3975 42.7793 65.2433 42.7568 65.2433 41.1305C65.2433 42.7568 64.0891 42.7793 64.0891 42.7793C64.0891 42.7793 65.1353 42.801 65.2346 44.2085ZM32.7016 59.5566H32.7137C32.7853 58.5267 33.5401 58.5108 33.5401 58.5108C33.5401 58.5108 32.7079 58.4944 32.7079 57.3044C32.7079 58.4944 31.8755 58.5108 31.8755 58.5108C31.8755 58.5108 32.63 58.5267 32.7016 59.5566Z" fill="#E1E4E5"/>
<defs>
<linearGradient id="paint0_linear_170_5048" x1="57.6261" y1="27.6537" x2="64.2201" y2="17.6091" gradientUnits="userSpaceOnUse">
<stop stop-color="white"/>
<stop offset="1" stop-color="#EEEEEE"/>
</linearGradient>
<linearGradient id="paint1_linear_170_5048" x1="70.9775" y1="45.1894" x2="64.9057" y2="47.6976" gradientUnits="userSpaceOnUse">
<stop stop-color="white"/>
<stop offset="1" stop-color="#EEEEEE"/>
</linearGradient>
<linearGradient id="paint2_linear_170_5048" x1="19.2933" y1="46.6317" x2="12.6309" y2="36.1879" gradientUnits="userSpaceOnUse">
<stop stop-color="white"/>
<stop offset="1" stop-color="#EEEEEE"/>
</linearGradient>
<linearGradient id="paint3_linear_170_5048" x1="62.3398" y1="54.4976" x2="75.0175" y2="60.4871" gradientUnits="userSpaceOnUse">
<stop stop-color="white"/>
<stop offset="1" stop-color="#EEEEEE"/>
</linearGradient>
<linearGradient id="paint4_linear_170_5048" x1="67.3544" y1="35.0034" x2="61.2826" y2="32.4952" gradientUnits="userSpaceOnUse">
<stop stop-color="white"/>
<stop offset="1" stop-color="#EEEEEE"/>
</linearGradient>
<linearGradient id="paint5_linear_170_5048" x1="21.486" y1="50.1101" x2="18.0745" y2="55.4578" gradientUnits="userSpaceOnUse">
<stop stop-color="white"/>
<stop offset="1" stop-color="#EEEEEE"/>
</linearGradient>
</defs>
</svg>
