<svg width="80" height="80" viewBox="0 0 80 80" fill="none" xmlns="http://www.w3.org/2000/svg">
<rect width="80" height="80" rx="5.14286" fill="#F8AEDE"/>
<path fill-rule="evenodd" clip-rule="evenodd" d="M20.4568 21.8887H20.2007C20.1711 21.8887 20.1427 21.8769 20.1217 21.8559C20.1008 21.8349 20.089 21.8065 20.089 21.7768V21.5207C20.089 21.4589 20.1394 21.409 20.2007 21.409H20.4568C20.4865 21.4091 20.5149 21.4209 20.5358 21.4418C20.5568 21.4627 20.5686 21.4911 20.5687 21.5207V21.7768C20.5687 21.7915 20.5659 21.8061 20.5603 21.8197C20.5546 21.8333 20.5464 21.8456 20.536 21.856C20.5256 21.8664 20.5133 21.8746 20.4997 21.8803C20.4861 21.8859 20.4715 21.8887 20.4568 21.8887ZM19.5689 21.8887H19.3128C19.2832 21.8886 19.2548 21.8768 19.2339 21.8558C19.2129 21.8349 19.2011 21.8065 19.2011 21.7768V21.5207C19.2011 21.4589 19.2515 21.409 19.3128 21.409H19.5689C19.5985 21.4091 19.6269 21.4209 19.6478 21.4418C19.6688 21.4628 19.6806 21.4911 19.6807 21.5207V21.7768C19.6806 21.8065 19.6688 21.8349 19.6479 21.8558C19.6269 21.8768 19.5986 21.8886 19.5689 21.8887ZM18.6804 21.8887H18.4243C18.3947 21.8886 18.3663 21.8768 18.3454 21.8558C18.3244 21.8349 18.3126 21.8065 18.3125 21.7768V21.5207C18.3125 21.4589 18.363 21.409 18.4243 21.409H18.6804C18.71 21.4091 18.7384 21.4209 18.7593 21.4418C18.7803 21.4628 18.7921 21.4911 18.7922 21.5207V21.7768C18.7922 21.7915 18.7894 21.8061 18.7838 21.8197C18.7782 21.8333 18.77 21.8456 18.7596 21.856C18.7492 21.8664 18.7368 21.8746 18.7233 21.8803C18.7097 21.8859 18.6951 21.8887 18.6804 21.8887ZM17.7924 21.8887H17.5364C17.5068 21.8886 17.4784 21.8768 17.4574 21.8558C17.4365 21.8349 17.4246 21.8065 17.4246 21.7768V21.5207C17.4246 21.4589 17.475 21.409 17.5364 21.409H17.7924C17.8544 21.409 17.9048 21.4594 17.9048 21.5207V21.7768C17.9045 21.8065 17.8925 21.8348 17.8715 21.8558C17.8505 21.8767 17.8221 21.8885 17.7924 21.8887ZM16.9045 21.8887H16.6484C16.6187 21.8887 16.5902 21.8769 16.5692 21.8559C16.5482 21.835 16.5363 21.8065 16.5361 21.7768V21.5207C16.5361 21.4589 16.5865 21.409 16.6484 21.409H16.9045C16.9341 21.4091 16.9625 21.4209 16.9834 21.4418C17.0044 21.4628 17.0162 21.4911 17.0163 21.5207V21.7768C17.0162 21.8065 17.0044 21.8349 16.9835 21.8558C16.9625 21.8768 16.9341 21.8886 16.9045 21.8887ZM19.5364 20.9204H19.2803C19.2507 20.9203 19.2223 20.9085 19.2014 20.8875C19.1804 20.8666 19.1686 20.8382 19.1685 20.8086V20.552C19.1686 20.5224 19.1804 20.494 19.2014 20.4731C19.2223 20.4521 19.2507 20.4403 19.2803 20.4402H19.5364C19.5983 20.4402 19.6482 20.4906 19.6482 20.552V20.8081C19.6482 20.8228 19.6454 20.8374 19.6398 20.8511C19.6343 20.8647 19.626 20.8771 19.6156 20.8875C19.6053 20.898 19.5929 20.9062 19.5793 20.9119C19.5657 20.9175 19.5511 20.9204 19.5364 20.9204ZM18.6485 20.9204H18.3924C18.3628 20.9203 18.3344 20.9085 18.3134 20.8875C18.2925 20.8666 18.2807 20.8382 18.2806 20.8086V20.552C18.2807 20.5224 18.2925 20.494 18.3134 20.4731C18.3344 20.4521 18.3628 20.4403 18.3924 20.4402H18.6485C18.6781 20.4403 18.7064 20.4521 18.7274 20.4731C18.7483 20.494 18.7601 20.5224 18.7602 20.552V20.8081C18.7603 20.8228 18.7575 20.8374 18.7519 20.8511C18.7463 20.8647 18.7381 20.8771 18.7277 20.8875C18.7173 20.898 18.705 20.9062 18.6914 20.9119C18.6778 20.9175 18.6632 20.9204 18.6485 20.9204ZM17.7605 20.9204H17.5044C17.4747 20.9204 17.4462 20.9087 17.4251 20.8877C17.4041 20.8667 17.3922 20.8383 17.3921 20.8086V20.552C17.3921 20.4906 17.4424 20.4402 17.5044 20.4402H17.7605C17.7901 20.4403 17.8184 20.4521 17.8394 20.4731C17.8603 20.494 17.8721 20.5224 17.8722 20.552V20.8081C17.8722 20.8701 17.8218 20.9204 17.7605 20.9204ZM18.6804 22.9288H18.4243C18.3947 22.9287 18.3663 22.9169 18.3454 22.896C18.3245 22.875 18.3127 22.8467 18.3125 22.8171V22.561C18.3125 22.499 18.363 22.4491 18.4243 22.4491H18.6804C18.7101 22.4492 18.7384 22.461 18.7594 22.482C18.7803 22.503 18.7921 22.5313 18.7922 22.561V22.8171C18.7922 22.8318 18.7894 22.8463 18.7838 22.8599C18.7782 22.8735 18.77 22.8858 18.7596 22.8962C18.7492 22.9066 18.7368 22.9148 18.7233 22.9204C18.7097 22.926 18.6951 22.9289 18.6804 22.9288ZM17.7924 22.9288H17.5364C17.5068 22.9288 17.4784 22.917 17.4574 22.896C17.4365 22.8751 17.4247 22.8467 17.4246 22.8171V22.561C17.4246 22.499 17.475 22.4491 17.5364 22.4491H17.7924C17.8544 22.4491 17.9048 22.4995 17.9048 22.561V22.8171C17.9045 22.8467 17.8925 22.875 17.8715 22.8959C17.8505 22.9169 17.8221 22.9287 17.7924 22.9288ZM62.198 52.7681H62.5456C62.6296 52.7681 62.6973 52.8364 62.6973 52.9197V53.2673C62.6973 53.3514 62.6289 53.419 62.5456 53.419H62.198C62.1578 53.4189 62.1193 53.4029 62.0909 53.3744C62.0625 53.346 62.0465 53.3075 62.0463 53.2673V52.9197C62.0463 52.8998 62.0502 52.8801 62.0578 52.8616C62.0654 52.8432 62.0766 52.8265 62.0907 52.8124C62.1048 52.7983 62.1215 52.7871 62.1399 52.7795C62.1584 52.7719 62.1781 52.768 62.198 52.7681ZM63.4031 52.7681H63.7507C63.834 52.7681 63.9023 52.8364 63.9023 52.9197V53.2673C63.9023 53.3514 63.834 53.419 63.7507 53.419H63.4031C63.3629 53.4189 63.3244 53.4029 63.296 53.3744C63.2675 53.346 63.2515 53.3075 63.2514 53.2673V52.9197C63.2514 52.8364 63.3197 52.7681 63.4031 52.7681ZM64.6088 52.7681H64.9564C65.0398 52.7681 65.1081 52.8364 65.1081 52.9197V53.2673C65.1081 53.3514 65.0398 53.419 64.9564 53.419H64.6088C64.5255 53.419 64.4572 53.3507 64.4572 53.2673V52.9197C64.4571 52.8998 64.461 52.8801 64.4686 52.8616C64.4762 52.8432 64.4874 52.8265 64.5015 52.8124C64.5156 52.7983 64.5323 52.7871 64.5507 52.7795C64.5692 52.7719 64.5889 52.768 64.6088 52.7681ZM65.8139 52.7681H66.1615C66.2448 52.7681 66.3132 52.8364 66.3132 52.9197V53.2673C66.3132 53.3514 66.2448 53.419 66.1615 53.419H65.8139C65.7736 53.419 65.735 53.4031 65.7064 53.3746C65.6779 53.3462 65.6617 53.3076 65.6615 53.2673V52.9197C65.662 52.8795 65.6782 52.8411 65.7067 52.8127C65.7352 52.7844 65.7737 52.7683 65.8139 52.7681ZM67.0191 52.7681H67.3666C67.4506 52.7681 67.5191 52.8364 67.5191 52.9197V53.2673C67.5191 53.3514 67.4506 53.419 67.3666 53.419H67.0191C66.9789 53.4189 66.9404 53.4029 66.9119 53.3744C66.8835 53.346 66.8675 53.3075 66.8674 53.2673V52.9197C66.8674 52.8364 66.9357 52.7681 67.0191 52.7681ZM63.4472 54.0821H63.7948C63.8781 54.0821 63.9465 54.1504 63.9465 54.2338V54.5821C63.9465 54.6654 63.8781 54.7338 63.7948 54.7338H63.4472C63.407 54.7338 63.3684 54.7178 63.34 54.6893C63.3115 54.6609 63.2955 54.6223 63.2955 54.5821V54.2345C63.2954 54.2145 63.2992 54.1947 63.3068 54.1762C63.3144 54.1577 63.3255 54.1409 63.3396 54.1267C63.3537 54.1126 63.3705 54.1013 63.389 54.0937C63.4074 54.086 63.4272 54.0821 63.4472 54.0821ZM64.6523 54.0821H64.9999C65.0832 54.0821 65.1515 54.1504 65.1515 54.2338V54.5821C65.1515 54.6654 65.0832 54.7338 64.9999 54.7338H64.6523C64.6121 54.7336 64.5736 54.7176 64.5452 54.6892C64.5168 54.6608 64.5008 54.6223 64.5006 54.5821V54.2345C64.5005 54.2145 64.5043 54.1947 64.5119 54.1762C64.5195 54.1577 64.5306 54.1409 64.5447 54.1267C64.5588 54.1125 64.5756 54.1013 64.5941 54.0937C64.6125 54.086 64.6323 54.0821 64.6523 54.0821ZM65.8574 54.0821H66.2049C66.289 54.0821 66.3574 54.1504 66.3574 54.2338V54.5821C66.3574 54.6654 66.289 54.7338 66.2049 54.7338H65.8574C65.7741 54.7338 65.7057 54.6654 65.7057 54.5821V54.2345C65.7057 54.1504 65.7741 54.0821 65.8574 54.0821ZM64.6088 51.3564H64.9564C65.0398 51.3564 65.1081 51.4248 65.1081 51.5081V51.8557C65.1081 51.9397 65.0398 52.0073 64.9564 52.0073H64.6088C64.5686 52.0072 64.5302 51.9912 64.5017 51.9628C64.4733 51.9344 64.4573 51.8959 64.4572 51.8557V51.5081C64.4571 51.4882 64.461 51.4685 64.4686 51.45C64.4762 51.4316 64.4874 51.4149 64.5015 51.4008C64.5156 51.3867 64.5323 51.3755 64.5507 51.3679C64.5691 51.3603 64.5889 51.3564 64.6088 51.3564ZM65.8139 51.3564H66.1615C66.2448 51.3564 66.3132 51.4248 66.3132 51.5081V51.8557C66.3132 51.9397 66.2448 52.0073 66.1615 52.0073H65.8139C65.7737 52.0073 65.735 51.9914 65.7064 51.963C65.6779 51.9346 65.6617 51.896 65.6615 51.8557V51.5081C65.662 51.4679 65.6782 51.4295 65.7067 51.4011C65.7352 51.3727 65.7737 51.3567 65.8139 51.3564Z" fill="#E1E4E5"/>
<path d="M57.6954 56.0885H17.1434C15.9598 56.0885 15 55.1286 15 53.945V28.5365C15 27.3529 15.9598 26.393 17.1434 26.393H57.6954C58.879 26.393 59.8389 27.3529 59.8389 28.5365V53.945C59.8389 55.1286 58.879 56.0885 57.6954 56.0885Z" fill="white" stroke="#E1E4E5" stroke-width="0.38403"/>
<path d="M59.8389 29.1937H15V28.5365C15 27.3529 15.9598 26.393 17.1434 26.393H57.6954C58.879 26.393 59.8389 27.3529 59.8389 28.5365V29.1937Z" fill="white" stroke="#E1E4E5" stroke-width="0.38403"/>
<path d="M17.0643 28.2173C17.1215 28.2181 17.1784 28.2075 17.2315 28.1862C17.2846 28.1648 17.333 28.1331 17.3737 28.0929C17.4145 28.0527 17.4469 28.0048 17.469 27.952C17.4911 27.8992 17.5025 27.8425 17.5025 27.7852C17.5025 27.728 17.4911 27.6713 17.469 27.6185C17.4469 27.5656 17.4145 27.5177 17.3737 27.4775C17.333 27.4373 17.2846 27.4056 17.2315 27.3843C17.1784 27.3629 17.1215 27.3523 17.0643 27.3531C16.9507 27.3547 16.8424 27.4009 16.7626 27.4818C16.6829 27.5627 16.6382 27.6717 16.6382 27.7852C16.6382 27.8988 16.6829 28.0078 16.7626 28.0886C16.8424 28.1695 16.9507 28.2157 17.0643 28.2173ZM18.7926 28.2173C18.9072 28.2173 19.0171 28.1718 19.0981 28.0908C19.1791 28.0097 19.2247 27.8998 19.2247 27.7852C19.2247 27.6706 19.1791 27.5607 19.0981 27.4797C19.0171 27.3987 18.9072 27.3531 18.7926 27.3531C18.678 27.3531 18.5681 27.3987 18.487 27.4797C18.406 27.5607 18.3605 27.6706 18.3605 27.7852C18.3605 27.8998 18.406 28.0097 18.487 28.0908C18.5681 28.1718 18.678 28.2173 18.7926 28.2173ZM20.5688 28.2173C20.8339 28.2173 21.0488 28.0239 21.0488 27.7853C21.0488 27.5466 20.8339 27.3532 20.5688 27.3532C20.3036 27.3532 20.0887 27.5466 20.0887 27.7853C20.0887 28.0239 20.3036 28.2173 20.5688 28.2173Z" fill="#E1E4E5"/>
<path d="M67.2967 48.6955H26.7448C25.5612 48.6955 24.6013 47.7356 24.6013 46.552V21.1435C24.6013 19.9599 25.5612 19 26.7448 19H67.2967C68.4804 19 69.4403 19.9599 69.4403 21.1435V46.552C69.4403 47.7356 68.4804 48.6955 67.2967 48.6955Z" fill="white" stroke="#E1E4E5" stroke-width="0.38403"/>
<path d="M69.4403 21.8007H24.6013V21.1435C24.6013 19.9599 25.5612 19 26.7448 19H67.2967C68.4804 19 69.4403 19.9599 69.4403 21.1435V21.8007Z" fill="white" stroke="#E1E4E5" stroke-width="0.38403"/>
<path d="M26.6655 20.8243C26.7227 20.8251 26.7796 20.8145 26.8327 20.7931C26.8858 20.7718 26.9342 20.7401 26.9749 20.6999C27.0157 20.6597 27.048 20.6118 27.0701 20.559C27.0922 20.5062 27.1036 20.4495 27.1036 20.3922C27.1036 20.335 27.0922 20.2783 27.0701 20.2255C27.048 20.1727 27.0157 20.1248 26.9749 20.0846C26.9342 20.0444 26.8858 20.0127 26.8327 19.9914C26.7796 19.97 26.7227 19.9594 26.6655 19.9602C26.552 19.9618 26.4436 20.008 26.3639 20.0889C26.2842 20.1697 26.2395 20.2787 26.2395 20.3922C26.2395 20.5058 26.2842 20.6148 26.3639 20.6956C26.4436 20.7764 26.552 20.8227 26.6655 20.8243ZM28.3937 20.8243C28.451 20.8251 28.5078 20.8145 28.5609 20.7931C28.614 20.7718 28.6624 20.7401 28.7031 20.6999C28.7439 20.6597 28.7763 20.6118 28.7984 20.559C28.8205 20.5062 28.8318 20.4495 28.8318 20.3922C28.8318 20.335 28.8205 20.2783 28.7984 20.2255C28.7763 20.1727 28.7439 20.1248 28.7031 20.0846C28.6624 20.0444 28.614 20.0127 28.5609 19.9914C28.5078 19.97 28.451 19.9594 28.3937 19.9602C28.2802 19.9618 28.1719 20.008 28.0921 20.0889C28.0124 20.1697 27.9677 20.2787 27.9677 20.3922C27.9677 20.5058 28.0124 20.6148 28.0921 20.6956C28.1719 20.7764 28.2802 20.8227 28.3937 20.8243ZM30.17 20.8243C30.4351 20.8243 30.65 20.6309 30.65 20.3922C30.65 20.1536 30.4351 19.9601 30.17 19.9601C29.9048 19.9601 29.6899 20.1536 29.6899 20.3922C29.6899 20.6309 29.9048 20.8243 30.17 20.8243Z" fill="#E1E4E5"/>
<path d="M62.5308 36.1411H42.6794C42.293 36.1411 41.9797 36.4543 41.9797 36.8407C41.9797 37.227 42.293 37.5403 42.6794 37.5403H62.5308C62.9172 37.5403 63.2304 37.227 63.2304 36.8407C63.2304 36.4543 62.9172 36.1411 62.5308 36.1411Z" fill="#E1E4E5"/>
<path d="M62.5308 40.1639H42.6794C42.293 40.1639 41.9797 40.4771 41.9797 40.8635C41.9797 41.2498 42.293 41.5631 42.6794 41.5631H62.5308C62.9172 41.5631 63.2304 41.2498 63.2304 40.8635C63.2304 40.4771 62.9172 40.1639 62.5308 40.1639Z" fill="#E1E4E5"/>
<path d="M59.31 32.0578H42.6999C42.3021 32.0578 41.9797 32.3802 41.9797 32.7779C41.9797 33.1756 42.3021 33.498 42.6999 33.498H59.31C59.7078 33.498 60.0302 33.1756 60.0302 32.7779C60.0302 32.3802 59.7078 32.0578 59.31 32.0578Z" fill="#E1E4E5"/>
<path d="M63.4927 27.8333H42.6794C42.293 27.8333 41.9797 28.1465 41.9797 28.5329C41.9797 28.9192 42.293 29.2325 42.6794 29.2325H63.4927C63.8791 29.2325 64.1924 28.9192 64.1924 28.5329C64.1924 28.1465 63.8791 27.8333 63.4927 27.8333Z" fill="#E1E4E5"/>
<path d="M31.6571 32.3637C31.9728 32.3637 32.2287 32.1078 32.2287 31.7921C32.2287 31.4764 31.9728 31.2205 31.6571 31.2205C31.3414 31.2205 31.0854 31.4764 31.0854 31.7921C31.0854 32.1078 31.3414 32.3637 31.6571 32.3637Z" fill="#E1E4E5" stroke="#E1E4E5" stroke-width="0.357255"/>
<path d="M37.4448 32.8408C37.2482 32.8105 37.0496 32.7943 36.8507 32.7925C35.6514 32.7839 34.5088 33.3097 33.7247 34.231C32.9406 35.1523 32.5942 36.3764 32.7767 37.5796" stroke="#E1E4E5" stroke-width="0.96458" stroke-linecap="round" stroke-linejoin="round"/>
<path d="M37.6591 33.114C37.6591 33.7192 37.5399 34.3185 37.3083 34.8776C37.0767 35.4368 36.7373 35.9448 36.3093 36.3728C35.8814 36.8007 35.3733 37.1402 34.8142 37.3718C34.255 37.6034 33.6557 37.7226 33.0505 37.7226C31.8282 37.7226 30.656 37.237 29.7917 36.3727C28.9275 35.5085 28.4419 34.3363 28.4419 33.114C28.4418 31.8917 28.9273 30.7194 29.7916 29.8551C30.6559 28.9908 31.8282 28.5053 33.0505 28.5053C34.2728 28.5053 35.4451 28.9908 36.3094 29.8551C37.1737 30.7194 37.6592 31.8917 37.6591 33.114Z" stroke="#E1E4E5" stroke-width="0.96458" stroke-linecap="round" stroke-linejoin="round"/>
<path d="M19.1285 42.9072C19.6057 42.9072 19.9926 43.2941 19.9926 43.7714C19.9926 44.2486 19.6057 44.6355 19.1285 44.6355C18.6513 44.6355 18.2644 44.2486 18.2644 43.7714C18.2644 43.2941 18.6513 42.9072 19.1285 42.9072Z" fill="#0F111A"/>
<path d="M20.1367 35.0342C19.6329 35.0342 19.2246 35.4426 19.2246 35.9464C19.2246 36.4501 19.6329 36.8585 20.1367 36.8585C20.6405 36.8585 21.0488 36.4501 21.0488 35.9464C21.0488 35.4426 20.6405 35.0342 20.1367 35.0342Z" fill="#E1E4E5"/>
<path d="M27.3376 54.0448C26.8339 54.0448 26.4255 53.6364 26.4255 53.1327C26.4255 52.6289 26.8339 52.2205 27.3376 52.2205C27.8414 52.2205 28.2498 52.6289 28.2498 53.1327C28.2498 53.6364 27.8414 54.0448 27.3376 54.0448Z" fill="#E1E4E5"/>
<path d="M19.7887 50.826L17.6381 52.9766C17.5598 53.0549 17.5598 53.1819 17.6381 53.2602C17.7164 53.3385 17.8434 53.3385 17.9217 53.2602L20.0723 51.1096C20.1506 51.0313 20.1506 50.9043 20.0723 50.826C19.994 50.7477 19.867 50.7477 19.7887 50.826Z" fill="#E1E4E5"/>
<path d="M19.5782 52.3658L18.9579 52.9861C18.8796 53.0644 18.8796 53.1913 18.9579 53.2696C19.0363 53.3479 19.1632 53.3479 19.2415 53.2696L19.8617 52.6494C19.94 52.5711 19.94 52.4441 19.8617 52.3658C19.7834 52.2875 19.6565 52.2875 19.5782 52.3658Z" fill="#E1E4E5"/>
<path d="M21.9005 24.8997L23.2938 23.5064C23.3446 23.4556 23.3446 23.3733 23.2939 23.3226C23.2431 23.2719 23.1609 23.2719 23.1101 23.3226L21.7168 24.716C21.666 24.7667 21.666 24.849 21.7167 24.8997C21.7675 24.9505 21.8498 24.9504 21.9005 24.8997Z" fill="#E1E4E5"/>
<path d="M22.0368 23.902L22.4386 23.5002C22.4894 23.4495 22.4894 23.3672 22.4386 23.3165C22.3879 23.2657 22.3056 23.2657 22.2549 23.3165L21.8531 23.7183C21.8023 23.769 21.8023 23.8513 21.8531 23.902C21.9038 23.9528 21.9861 23.9528 22.0368 23.902Z" fill="#E1E4E5"/>
<path fill-rule="evenodd" clip-rule="evenodd" d="M37.2609 53.6099L34.7316 45.4983C34.4649 44.6426 35.3375 43.8758 36.1472 44.2549L43.6906 47.7902C44.5845 48.209 44.4342 49.5295 43.4687 49.7341L40.3633 50.3938L39.2111 53.6464C38.8793 54.5803 37.5565 54.5545 37.2609 53.6099Z" fill="#0F111A"/>
<path d="M55.805 52.7717C55.4605 52.9705 55.0201 52.8525 54.8213 52.5081C54.6224 52.1637 54.7404 51.7233 55.0849 51.5244C55.4293 51.3255 55.8697 51.4436 56.0686 51.788C56.2674 52.1324 56.1494 52.5728 55.805 52.7717Z" fill="#0F111A"/>
<path d="M65.3103 33.089C64.9659 33.2879 64.5255 33.1698 64.3266 32.8254C64.1278 32.481 64.2458 32.0406 64.5902 31.8417C64.9347 31.6429 65.3751 31.7609 65.5739 32.1053C65.7728 32.4497 65.6548 32.8901 65.3103 33.089Z" fill="#0F111A"/>
<path d="M30.1212 43.0812C30.3794 43.2302 30.4678 43.5603 30.3188 43.8185C30.1697 44.0766 29.8396 44.1651 29.5815 44.016C29.3233 43.867 29.2348 43.5369 29.3839 43.2787C29.5329 43.0206 29.863 42.9321 30.1212 43.0812Z" fill="#E1E4E5"/>
<path d="M66.7218 44.0226C66.114 43.6717 65.3369 43.88 64.986 44.4877C64.6351 45.0955 64.8433 45.8726 65.4511 46.2235C66.0588 46.5743 66.836 46.3661 67.1868 45.7584C67.5377 45.1506 67.3295 44.3735 66.7218 44.0226Z" fill="#E1E4E5"/>
</svg>
