<svg width="16" height="15" viewBox="0 0 16 15" fill="none" xmlns="http://www.w3.org/2000/svg">
<path d="M8 11.25C8.2125 11.25 8.39075 11.178 8.53475 11.034C8.67875 10.89 8.7505 10.712 8.75 10.5V7.5C8.75 7.2875 8.678 7.10925 8.534 6.96525C8.39 6.82125 8.212 6.7495 8 6.75C7.7875 6.75 7.60925 6.822 7.46525 6.966C7.32125 7.11 7.2495 7.288 7.25 7.5V10.5C7.25 10.7125 7.322 10.8907 7.466 11.0347C7.61 11.1787 7.788 11.2505 8 11.25ZM8 5.25C8.2125 5.25 8.39075 5.178 8.53475 5.034C8.67875 4.89 8.7505 4.712 8.75 4.5C8.75 4.2875 8.678 4.10925 8.534 3.96525C8.39 3.82125 8.212 3.7495 8 3.75C7.7875 3.75 7.60925 3.822 7.46525 3.966C7.32125 4.11 7.2495 4.288 7.25 4.5C7.25 4.7125 7.322 4.89075 7.466 5.03475C7.61 5.17875 7.788 5.2505 8 5.25ZM8 15C6.9625 15 5.9875 14.803 5.075 14.409C4.1625 14.015 3.36875 13.4808 2.69375 12.8063C2.01875 12.1313 1.4845 11.3375 1.091 10.425C0.6975 9.5125 0.5005 8.5375 0.5 7.5C0.5 6.4625 0.697 5.4875 1.091 4.575C1.485 3.6625 2.01925 2.86875 2.69375 2.19375C3.36875 1.51875 4.1625 0.9845 5.075 0.591C5.9875 0.1975 6.9625 0.0005 8 0C9.0375 0 10.0125 0.197 10.925 0.591C11.8375 0.985 12.6313 1.51925 13.3063 2.19375C13.9813 2.86875 14.5157 3.6625 14.9097 4.575C15.3037 5.4875 15.5005 6.4625 15.5 7.5C15.5 8.5375 15.303 9.5125 14.909 10.425C14.515 11.3375 13.9808 12.1313 13.3063 12.8063C12.6313 13.4813 11.8375 14.0157 10.925 14.4097C10.0125 14.8037 9.0375 15.0005 8 15ZM8 13.5C9.675 13.5 11.0937 12.9187 12.2562 11.7562C13.4187 10.5937 14 9.175 14 7.5C14 5.825 13.4187 4.40625 12.2562 3.24375C11.0937 2.08125 9.675 1.5 8 1.5C6.325 1.5 4.90625 2.08125 3.74375 3.24375C2.58125 4.40625 2 5.825 2 7.5C2 9.175 2.58125 10.5937 3.74375 11.7562C4.90625 12.9187 6.325 13.5 8 13.5Z" fill="#FFB01F"/>
</svg>
