<svg width="18" height="19" viewBox="0 0 18 19" fill="none" xmlns="http://www.w3.org/2000/svg">
<path d="M4.5 17C4.0875 17 3.73425 16.853 3.44025 16.559C3.14625 16.265 2.9995 15.912 3 15.5V8C3 7.5875 3.147 7.23425 3.441 6.94025C3.735 6.64625 4.088 6.4995 4.5 6.5H5.25V5C5.25 3.9625 5.61575 3.078 6.34725 2.3465C7.07875 1.615 7.963 1.2495 9 1.25C10.0375 1.25 10.922 1.61575 11.6535 2.34725C12.385 3.07875 12.7505 3.963 12.75 5V6.5H13.5C13.9125 6.5 14.2658 6.647 14.5598 6.941C14.8538 7.235 15.0005 7.588 15 8V15.5C15 15.9125 14.853 16.2657 14.559 16.5597C14.265 16.8538 13.912 17.0005 13.5 17H4.5ZM4.5 15.5H13.5V8H4.5V15.5ZM9 13.25C9.4125 13.25 9.76575 13.103 10.0598 12.809C10.3538 12.515 10.5005 12.162 10.5 11.75C10.5 11.3375 10.353 10.9843 10.059 10.6903C9.765 10.3963 9.412 10.2495 9 10.25C8.5875 10.25 8.23425 10.397 7.94025 10.691C7.64625 10.985 7.4995 11.338 7.5 11.75C7.5 12.1625 7.647 12.5158 7.941 12.8098C8.235 13.1038 8.588 13.2505 9 13.25ZM6.75 6.5H11.25V5C11.25 4.375 11.0313 3.84375 10.5938 3.40625C10.1563 2.96875 9.625 2.75 9 2.75C8.375 2.75 7.84375 2.96875 7.40625 3.40625C6.96875 3.84375 6.75 4.375 6.75 5V6.5Z" fill="#909199"/>
</svg>
