<svg width="218" height="60" viewBox="0 0 218 60" fill="none" xmlns="http://www.w3.org/2000/svg">
<g clip-path="url(#clip0_253_2)">
<path d="M56.9586 36.2456C56.9586 33.9095 56.4597 31.8421 55.4668 30.0432C54.4738 28.2396 53.0731 26.8484 51.2694 25.8651C49.4706 24.8865 47.4271 24.3972 45.1534 24.3972C42.8796 24.3972 40.697 24.9009 38.879 25.913C37.0657 26.9204 35.6506 28.3595 34.6433 30.2351C33.6311 32.1107 33.1274 34.2885 33.1274 36.7637C33.1274 39.2389 33.6407 41.3783 34.6625 43.2539C35.689 45.1295 37.1137 46.5782 38.9461 47.6C40.7786 48.6217 42.846 49.135 45.1534 49.135C48.0075 49.135 50.4108 48.3915 52.3727 46.9092C54.3347 45.4222 55.6634 43.5274 56.3542 41.22H49.8208C48.871 43.1532 47.2688 44.1174 45.0238 44.1174C43.4648 44.1174 42.1505 43.6281 41.0856 42.6495C40.0206 41.6662 39.4162 40.3134 39.2723 38.5817H56.7859C56.901 37.891 56.9586 37.1139 56.9586 36.2456ZM39.3155 34.5187C39.5457 32.9022 40.1693 31.6406 41.1959 30.734C42.2176 29.8225 43.4792 29.3716 44.9807 29.3716C46.5637 29.3716 47.9068 29.8417 49.0005 30.7771C50.0942 31.7125 50.6602 32.9597 50.689 34.5187H39.3155Z" fill="#231F20"/>
<path d="M73.7816 29.7603V24.7859H68.4186V18.8617H62.3217V24.7859H59.4675V29.7603H62.3217V41.3065C62.3217 46.2665 64.8737 48.7466 69.9776 48.7466H73.7816V43.6426H70.9706C70.0496 43.6426 69.3924 43.4651 69.0038 43.1006C68.6153 42.7408 68.4186 42.1556 68.4186 41.3497V29.7603H73.7816Z" fill="#231F20"/>
<path d="M84.939 24.7857V23.7927C84.939 22.4352 85.2268 21.4998 85.8024 20.9817C86.3828 20.4636 87.4046 20.219 88.8724 20.243V15.1438C85.5002 15.0575 82.977 15.7051 81.3077 17.0866C79.6335 18.4729 78.7989 20.6363 78.7989 23.5769V24.7857H76.0742V29.7601H78.7989V48.7463H84.939V29.7601H89.1363V24.7857H84.939Z" fill="#231F20"/>
<path d="M102.175 25.5196C100.918 26.244 99.9009 27.2369 99.1238 28.5033V24.7857H93.0701V48.7463H99.1238V36.8068C99.1238 34.5906 99.6083 33.0316 100.572 32.1394C101.537 31.2471 102.971 30.7962 104.875 30.7962H106.477V24.4403C104.861 24.4403 103.427 24.8001 102.175 25.5196Z" fill="#231F20"/>
<path d="M132.812 36.2456C132.812 33.9095 132.314 31.8421 131.321 30.0432C130.328 28.2396 128.927 26.8484 127.128 25.8651C125.324 24.8865 123.286 24.3972 121.007 24.3972C118.729 24.3972 116.551 24.9009 114.738 25.913C112.92 26.9204 111.504 28.3595 110.497 30.2351C109.49 32.1107 108.986 34.2885 108.986 36.7637C108.986 39.2389 109.495 41.3783 110.521 43.2539C111.543 45.1295 112.968 46.5782 114.8 47.6C116.632 48.6217 118.7 49.135 121.007 49.135C123.861 49.135 126.269 48.3915 128.231 46.9092C130.189 45.4222 131.517 43.5274 132.208 41.22H125.679C124.725 43.1532 123.127 44.1174 120.878 44.1174C119.319 44.1174 118.009 43.6281 116.939 42.6495C115.874 41.6662 115.27 40.3134 115.126 38.5817H132.64C132.755 37.891 132.812 37.1139 132.812 36.2456ZM115.169 34.5187C115.4 32.9022 116.023 31.6406 117.05 30.734C118.071 29.8225 119.333 29.3716 120.835 29.3716C122.417 29.3716 123.761 29.8417 124.854 30.7771C125.953 31.7125 126.514 32.9597 126.543 34.5187H115.169Z" fill="#231F20"/>
<path d="M159.498 36.2456C159.498 33.9095 158.999 31.8421 158.006 30.0432C157.008 28.2396 155.612 26.8484 153.809 25.8651C152.01 24.8865 149.966 24.3972 147.693 24.3972C145.419 24.3972 143.236 24.9009 141.418 25.913C139.605 26.9204 138.19 28.3595 137.183 30.2351C136.17 32.1107 135.667 34.2885 135.667 36.7637C135.667 39.2389 136.18 41.3783 137.202 43.2539C138.228 45.1295 139.653 46.5782 141.485 47.6C143.313 48.6217 145.385 49.135 147.693 49.135C150.547 49.135 152.95 48.3915 154.912 46.9092C156.874 45.4222 158.198 43.5274 158.893 41.22H152.36C151.41 43.1532 149.808 44.1174 147.563 44.1174C146.004 44.1174 144.69 43.6281 143.625 42.6495C142.56 41.6662 141.951 40.3134 141.807 38.5817H159.325C159.44 37.891 159.498 37.1139 159.498 36.2456ZM141.85 34.5187C142.08 32.9022 142.709 31.6406 143.735 30.734C144.757 29.8225 146.019 29.3716 147.52 29.3716C149.103 29.3716 150.441 29.8417 151.54 30.7771C152.634 31.7125 153.2 32.9597 153.228 34.5187H141.85Z" fill="#231F20"/>
<path d="M181.228 38.0829C180.408 37.1187 179.434 36.4039 178.311 35.9434C177.184 35.4829 175.759 35.0368 174.028 34.6051C172.325 34.1686 171.073 33.7464 170.267 33.3291C169.456 32.9118 169.053 32.2978 169.053 31.4919C169.053 30.7675 169.351 30.2063 169.941 29.8034C170.531 29.4004 171.375 29.1989 172.469 29.1989C173.654 29.1989 174.599 29.4772 175.304 30.0432C176.009 30.6044 176.407 31.3624 176.493 32.3121H182.288C182.115 29.8897 181.18 27.9661 179.477 26.5366C177.774 25.112 175.5 24.3972 172.646 24.3972C170.713 24.3972 169.034 24.7138 167.605 25.347C166.18 25.985 165.082 26.8484 164.319 27.9421C163.556 29.0406 163.172 30.2495 163.172 31.5782C163.172 33.19 163.585 34.4756 164.405 35.4254C165.225 36.3751 166.209 37.0851 167.346 37.5456C168.483 38.0061 169.946 38.4522 171.735 38.8839C173.467 39.3444 174.728 39.7714 175.52 40.1599C176.311 40.5485 176.709 41.1337 176.709 41.9108C176.709 42.6351 176.383 43.2252 175.736 43.6857C175.088 44.1462 174.186 44.3764 173.035 44.3764C171.884 44.3764 170.862 44.0742 170.07 43.4698C169.279 42.8654 168.823 42.0979 168.708 41.1769H162.611C162.697 42.6495 163.196 43.9879 164.103 45.2015C165.01 46.4103 166.242 47.3697 167.801 48.0749C169.356 48.78 171.116 49.135 173.078 49.135C175.04 49.135 176.647 48.8232 178.072 48.2044C179.501 47.5856 180.595 46.7269 181.358 45.6332C182.12 44.5347 182.504 43.2971 182.504 41.9108C182.475 40.3278 182.048 39.0518 181.228 38.0829Z" fill="#231F20"/>
<path d="M204.8 38.0829C203.975 37.1187 203.006 36.4039 201.879 35.9434C200.757 35.4829 199.327 35.0368 197.6 34.6051C195.897 34.1686 194.64 33.7464 193.835 33.3291C193.029 32.9118 192.626 32.2978 192.626 31.4919C192.626 30.7675 192.918 30.2063 193.513 29.8034C194.103 29.4004 194.948 29.1989 196.041 29.1989C197.221 29.1989 198.166 29.4772 198.876 30.0432C199.581 30.6044 199.975 31.3624 200.066 32.3121H205.861C205.688 29.8897 204.748 27.9661 203.05 26.5366C201.347 25.112 199.068 24.3972 196.214 24.3972C194.281 24.3972 192.602 24.7138 191.177 25.347C189.748 25.985 188.654 26.8484 187.891 27.9421C187.124 29.0406 186.745 30.2495 186.745 31.5782C186.745 33.19 187.152 34.4756 187.978 35.4254C188.798 36.3751 189.776 37.0851 190.918 37.5456C192.055 38.0061 193.518 38.4522 195.307 38.8839C197.034 39.3444 198.296 39.7714 199.092 40.1599C199.884 40.5485 200.282 41.1337 200.282 41.9108C200.282 42.6351 199.956 43.2252 199.308 43.6857C198.656 44.1462 197.759 44.3764 196.602 44.3764C195.446 44.3764 194.434 44.0742 193.643 43.4698C192.846 42.8654 192.396 42.0979 192.28 41.1769H186.179C186.265 42.6495 186.764 43.9879 187.675 45.2015C188.582 46.4103 189.815 47.3697 191.369 48.0749C192.928 48.78 194.684 49.135 196.646 49.135C198.608 49.135 200.215 48.8232 201.644 48.2044C203.069 47.5856 204.162 46.7269 204.93 45.6332C205.693 44.5347 206.076 43.2971 206.076 41.9108C206.048 40.3278 205.621 39.0518 204.8 38.0829Z" fill="#231F20"/>
<path d="M211.046 16.7365V48.7416H217.104V16.7365H211.046Z" fill="#231F20"/>
<path d="M30.5469 33.2379H16.6885V36.26C17.9261 36.7732 18.7992 37.9869 18.7992 39.4115C18.7992 40.6396 18.1468 41.7189 17.1682 42.3185L17.4992 47.3073H13.2683L13.6041 42.3185C12.6255 41.7189 11.9731 40.6444 11.9731 39.4115C11.9731 38.1787 12.6735 37.0275 13.7048 36.4422V33.2379H7.92933C8.11641 31.0073 8.89831 29.2564 10.275 27.9901C11.6518 26.7237 13.3451 26.0905 15.355 26.0905C18.2619 26.0905 20.3294 27.3377 21.5574 29.8321H29.9856C29.5827 28.4937 29.0167 27.2657 28.2875 26.1432C27.3905 24.7617 26.244 23.5481 24.8529 22.4928C24.8433 22.488 24.8337 22.4784 24.8241 22.4688C22.8814 21.0057 20.6028 20.1087 17.9837 19.7681C17.197 19.6674 16.3767 19.6146 15.5229 19.6146C14.669 19.6146 13.7672 19.6722 12.9373 19.7969C10.9754 20.0703 9.17174 20.6699 7.512 21.5958C5.14711 22.9197 3.30509 24.7905 1.98113 27.2082C0.661977 29.6306 0 32.4224 0 35.5836C0 38.7448 0.652383 41.5942 1.95715 44.0166C3.25712 46.4342 5.08475 48.2955 7.42565 49.6002C9.77135 50.905 12.472 51.5574 15.5229 51.5574C18.5737 51.5574 21.0969 50.9242 23.4282 49.6578C23.9847 49.3556 24.5075 49.0246 25.0016 48.66C26.3735 47.6575 27.52 46.4199 28.4362 44.952C28.5801 44.7265 28.7145 44.5011 28.844 44.266C30.1295 41.9395 30.7675 39.2724 30.7675 36.2552C30.7675 35.1375 30.6956 34.1349 30.5469 33.2379Z" fill="#ED3957"/>
<path d="M15.4559 2.96436C12.3235 2.96436 9.77637 5.50673 9.77637 8.64392C9.77637 10.8745 11.0667 12.8029 12.9375 13.7287C13.6907 14.1172 14.5541 14.3235 15.4559 14.3235C16.3578 14.3235 17.2212 14.1172 17.9839 13.7287C19.8547 12.8029 21.1355 10.8745 21.1355 8.64392C21.1355 5.50673 18.5979 2.96436 15.4559 2.96436ZM15.4559 11.1671C14.0648 11.1671 12.9375 10.0398 12.9375 8.64392C12.9375 7.24801 14.0648 6.12073 15.4559 6.12073C16.8471 6.12073 17.9839 7.25281 17.9839 8.64392C17.9839 10.035 16.8566 11.1671 15.4559 11.1671Z" fill="#ED3957"/>
<path d="M17.9836 12.9325H12.9373V25.1167H17.9836V12.9325Z" fill="#ED3957"/>
<path d="M38.2461 50.3053C36.6727 48.7319 34.4037 48.2714 32.4274 48.943H32.4178C31.6119 49.2068 30.854 49.6625 30.2112 50.3053C29.5732 50.9433 29.1175 51.6964 28.8489 52.5023C28.1821 54.4834 28.633 56.7572 30.2112 58.3402C31.7894 59.9183 34.0631 60.3693 36.0443 59.7025C36.8501 59.4339 37.6081 58.9781 38.2461 58.3402C38.8888 57.6926 39.3398 56.9394 39.6084 56.1336C40.2752 54.1524 39.8194 51.8787 38.2461 50.3053ZM36.0155 56.1C35.0321 57.0882 33.4299 57.0882 32.4466 56.1C31.4584 55.1166 31.4584 53.5192 32.4466 52.5359C33.4155 51.5669 34.9697 51.5477 35.9531 52.4783L36.073 52.5982C36.9988 53.5816 36.9797 55.1358 36.0155 56.1Z" fill="#ED3957"/>
<path d="M29.4134 53.0664L32.9817 49.498L25.3193 41.8357L21.751 45.404L29.4134 53.0664Z" fill="#ED3957"/>
<path d="M49.1974 1.65969C46.9764 -0.556487 43.3835 -0.556487 41.1625 1.65969C39.5843 3.24268 39.1286 5.50683 39.8002 7.48317C40.064 8.29385 40.5245 9.05176 41.1625 9.69455C41.8053 10.3373 42.5584 10.7882 43.3643 11.0569H43.3691C45.3502 11.7236 47.624 11.2679 49.1974 9.69455C51.4136 7.46877 51.4136 3.88067 49.1974 1.65969ZM46.9668 7.45918C45.9786 8.44255 44.3813 8.44255 43.3979 7.45918C42.4145 6.47581 42.4145 4.87364 43.3979 3.89027C44.3813 2.9069 45.9786 2.9069 46.9668 3.89027C47.9502 4.87364 47.9502 6.47581 46.9668 7.45918Z" fill="#ED3957"/>
<path d="M43.9331 10.494L40.3647 6.92566L21.2308 26.0596L24.7991 29.6279L43.9331 10.494Z" fill="#ED3957"/>
</g>
<defs>
<clipPath id="clip0_253_2">
<rect width="217.104" height="60" fill="white"/>
</clipPath>
</defs>
</svg>
