<svg width="94" height="28" viewBox="0 0 94 28" fill="none" xmlns="http://www.w3.org/2000/svg">
<path d="M6 24C5.45 24 4.979 23.804 4.587 23.412C4.195 23.02 3.99934 22.5493 4 22V12C4 11.45 4.196 10.979 4.588 10.587C4.98 10.195 5.45067 9.99933 6 10H7V8C7 6.61667 7.48767 5.43733 8.463 4.462C9.43834 3.48667 10.6173 2.99933 12 3C13.3833 3 14.5627 3.48767 15.538 4.463C16.5133 5.43833 17.0007 6.61733 17 8V10H18C18.55 10 19.021 10.196 19.413 10.588C19.805 10.98 20.0007 11.4507 20 12V22C20 22.55 19.804 23.021 19.412 23.413C19.02 23.805 18.5493 24.0007 18 24H6ZM6 22H18V12H6V22ZM12 19C12.55 19 13.021 18.804 13.413 18.412C13.805 18.02 14.0007 17.5493 14 17C14 16.45 13.804 15.979 13.412 15.587C13.02 15.195 12.5493 14.9993 12 15C11.45 15 10.979 15.196 10.587 15.588C10.195 15.98 9.99934 16.4507 10 17C10 17.55 10.196 18.021 10.588 18.413C10.98 18.805 11.4507 19.0007 12 19ZM9 10H15V8C15 7.16667 14.7083 6.45833 14.125 5.875C13.5417 5.29167 12.8333 5 12 5C11.1667 5 10.4583 5.29167 9.875 5.875C9.29167 6.45833 9 7.16667 9 8V10Z" fill="#0F111A"/>
<path d="M33.224 8.882V21.5H34.79V15.812H41.306V21.5H42.872V8.882H41.306V14.372H34.79V8.882H33.224ZM44.5438 8.9V10.34H48.6298V21.5H50.1958V10.34H54.2818V8.9H44.5438ZM55.2664 8.9V10.34H59.3524V21.5H60.9184V10.34H65.0044V8.9H55.2664ZM71.5172 8.9H66.6752V21.5H68.2412V16.658H71.5172C72.3452 16.658 73.0652 16.514 73.6952 16.19C74.3252 15.866 74.8112 15.416 75.1712 14.822C75.5132 14.246 75.6932 13.562 75.6932 12.77C75.6932 11.996 75.5132 11.312 75.1712 10.736C74.8292 10.16 74.3432 9.71 73.7132 9.386C73.0652 9.062 72.3452 8.9 71.5172 8.9ZM68.2412 15.218V10.34H71.3912C72.2192 10.34 72.8672 10.574 73.3532 11.006C73.8392 11.438 74.0912 12.032 74.0912 12.77C74.0912 13.526 73.8392 14.12 73.3532 14.552C72.8492 15.002 72.2012 15.218 71.3732 15.218H68.2412ZM78.4427 17.378H76.8947C76.9307 18.206 77.1467 18.944 77.5427 19.592C77.9387 20.24 78.5147 20.726 79.2527 21.086C79.9727 21.446 80.8367 21.608 81.8267 21.608C82.6907 21.608 83.4647 21.464 84.1487 21.14C84.8327 20.834 85.3547 20.402 85.7327 19.826C86.1107 19.268 86.3087 18.62 86.3087 17.9C86.3087 16.802 85.9307 16.01 85.1747 15.506C84.4187 15.002 83.4107 14.642 82.1507 14.426C81.3587 14.3 80.7287 14.174 80.2787 14.03C79.8107 13.886 79.4507 13.688 79.1627 13.418C78.8747 13.148 78.7307 12.77 78.7307 12.284C78.7307 11.636 78.9647 11.114 79.4687 10.754C79.9547 10.394 80.6207 10.196 81.4667 10.196C82.2947 10.196 82.9967 10.43 83.5727 10.862C84.1307 11.312 84.4547 11.906 84.5627 12.626H86.1107C86.0567 11.87 85.8407 11.204 85.4447 10.628C85.0487 10.052 84.5087 9.584 83.8247 9.26C83.1407 8.936 82.3487 8.774 81.4667 8.774C80.6207 8.774 79.8647 8.936 79.2167 9.224C78.5687 9.53 78.0647 9.962 77.7047 10.502C77.3447 11.042 77.1647 11.672 77.1647 12.374C77.1647 13.49 77.5247 14.282 78.2807 14.768C79.0187 15.272 80.0267 15.614 81.2867 15.83C82.0787 15.974 82.6907 16.1 83.1587 16.244C83.6267 16.388 84.0047 16.586 84.2927 16.874C84.5807 17.162 84.7427 17.558 84.7427 18.044C84.7427 18.728 84.4727 19.25 83.9327 19.628C83.3927 20.006 82.7087 20.186 81.8447 20.186C80.8727 20.186 80.0807 19.934 79.4687 19.43C78.8387 18.926 78.4967 18.242 78.4427 17.378Z" fill="#0F111A"/>
</svg>
