<svg width="64" height="43" viewBox="0 0 64 43" fill="none" xmlns="http://www.w3.org/2000/svg">
<path d="M49.5708 25.8829C49.8173 30.4233 40.9402 39.6558 29.9989 36.2386C24.9101 34.6491 25.3411 32.0109 21.4717 28.5341C19.1652 26.4619 15.8513 24.8948 14.9297 21.8826C14.1334 19.2826 14.6217 16.4881 16.0021 14.6704C19.1066 10.5825 25.374 7.78324 31.5495 14.2241C37.7248 20.6649 48.934 14.1727 49.5708 25.8829Z" fill="url(#paint0_linear_64_1223)"/>
<path d="M47.259 14.1558C46.3877 15.7109 44.4794 15.9246 41.4222 15.629C39.123 15.4064 37.0263 15.2341 34.7269 13.9805C33.1175 13.1036 31.8435 11.9173 30.9137 10.765C29.906 9.51676 28.4997 8.09212 29.1891 6.6768C30.1366 4.73262 35.6158 3.09521 40.9362 5.77297C46.7808 8.71534 48.1114 12.6361 47.259 14.1558Z" fill="url(#paint1_linear_64_1223)"/>
<path fill-rule="evenodd" clip-rule="evenodd" d="M42.0684 31.7721C42.0684 29.918 43.5711 28.4153 45.4252 28.4153C47.2792 28.4153 48.782 29.918 48.782 31.7721M48.782 31.7721C48.782 33.6262 47.2792 35.1289 45.4252 35.1289C43.5711 35.1289 42.0684 33.6262 42.0684 31.7721" fill="#ED3957"/>
<path d="M44.2984 30.8202V31.5216M46.553 30.8202V31.5216M46.5781 32.6739C46.5781 32.6739 46.1458 33.0747 45.4257 33.0747C44.7054 33.0747 44.2734 32.6739 44.2734 32.6739" stroke="white" stroke-width="0.392107" stroke-linecap="round" stroke-linejoin="round"/>
<path fill-rule="evenodd" clip-rule="evenodd" d="M18.0096 32.6067C16.1534 32.6067 14.6484 31.1018 14.6484 29.2456C14.6484 27.3894 16.1534 25.8844 18.0096 25.8844C19.8659 25.8844 21.3708 27.3894 21.3708 29.2456C21.3708 31.1018 19.8659 32.6067 18.0096 32.6067Z" fill="#ED3957"/>
<path d="M18.9751 28.7855L17.7702 30.0126L17.0469 29.2764" stroke="white" stroke-width="0.335573" stroke-linecap="round" stroke-linejoin="round"/>
<path d="M17.7538 22.7436L19.1171 21.3803C19.1668 21.3307 19.1668 21.2502 19.1171 21.2005C19.0675 21.1509 18.987 21.1509 18.9374 21.2005L17.5741 22.5638C17.5244 22.6135 17.5244 22.694 17.5741 22.7436C17.6237 22.7933 17.7042 22.7932 17.7538 22.7436Z" fill="#E1E4E5"/>
<path d="M17.888 21.7676L18.2812 21.3744C18.3308 21.3247 18.3309 21.2442 18.2812 21.1946C18.2316 21.145 18.1511 21.145 18.1014 21.1946L17.7083 21.5878C17.6586 21.6374 17.6586 21.7179 17.7082 21.7676C17.7579 21.8172 17.8384 21.8172 17.888 21.7676Z" fill="#E1E4E5"/>
<path d="M49.0703 18.5626L50.4335 17.1993C50.4832 17.1497 50.4832 17.0692 50.4336 17.0196C50.3839 16.9699 50.3034 16.9699 50.2538 17.0196L48.8905 18.3829C48.8408 18.4325 48.8408 18.513 48.8905 18.5626C48.9401 18.6123 49.0206 18.6123 49.0703 18.5626Z" fill="#E1E4E5"/>
<path d="M49.2044 17.5865L49.5976 17.1934C49.6472 17.1437 49.6473 17.0632 49.5976 17.0136C49.548 16.9639 49.4675 16.9639 49.4178 17.0136L49.0247 17.4068C48.975 17.4564 48.975 17.5369 49.0246 17.5866C49.0743 17.6362 49.1548 17.6362 49.2044 17.5865Z" fill="#E1E4E5"/>
<path d="M37.2656 30.6957L38.6288 29.3324C38.6785 29.2827 38.6785 29.2023 38.6289 29.1526C38.5792 29.103 38.4987 29.103 38.4491 29.1526L37.0858 30.5159C37.0361 30.5656 37.0361 30.6461 37.0858 30.6957C37.1354 30.7453 37.2159 30.7453 37.2656 30.6957Z" fill="#E1E4E5"/>
<path d="M37.3978 29.7196L37.791 29.3264C37.8406 29.2768 37.8406 29.1963 37.791 29.1466C37.7413 29.097 37.6608 29.097 37.6112 29.1467L37.218 29.5398C37.1684 29.5895 37.1684 29.67 37.218 29.7196C37.2676 29.7692 37.3481 29.7692 37.3978 29.7196Z" fill="#E1E4E5"/>
<path d="M25.2148 30.6957L26.5781 29.3324C26.6277 29.2827 26.6277 29.2023 26.5781 29.1526C26.5284 29.103 26.448 29.103 26.3983 29.1526L25.035 30.5159C24.9854 30.5656 24.9854 30.6461 25.035 30.6957C25.0846 30.7453 25.1651 30.7453 25.2148 30.6957Z" fill="#E1E4E5"/>
<path d="M25.347 29.7196L25.7402 29.3264C25.7898 29.2768 25.7898 29.1963 25.7402 29.1466C25.6906 29.097 25.6101 29.097 25.5604 29.1467L25.1672 29.5398C25.1176 29.5895 25.1176 29.67 25.1672 29.7196C25.2169 29.7692 25.2974 29.7692 25.347 29.7196Z" fill="#E1E4E5"/>
<path fill-rule="evenodd" clip-rule="evenodd" d="M15.0734 13.4606H15.3712C15.4056 13.4606 15.4387 13.4743 15.4631 13.4987C15.4875 13.5231 15.5012 13.5561 15.5012 13.5906V13.8884C15.5012 13.9229 15.4875 13.956 15.4631 13.9803C15.4387 14.0047 15.4057 14.0184 15.3712 14.0185H15.0734C15.0389 14.0183 15.0059 14.0046 14.9816 13.9802C14.9572 13.9559 14.9435 13.9228 14.9434 13.8884V13.5906C14.9433 13.5735 14.9467 13.5566 14.9532 13.5408C14.9597 13.525 14.9693 13.5107 14.9813 13.4986C14.9934 13.4865 15.0078 13.4769 15.0236 13.4704C15.0393 13.4639 15.0563 13.4606 15.0734 13.4606ZM16.106 13.4606H16.4038C16.4753 13.4606 16.5339 13.5192 16.5339 13.5906V13.8884C16.5339 13.9229 16.5202 13.956 16.4958 13.9803C16.4714 14.0047 16.4383 14.0184 16.4038 14.0185H16.106C16.0716 14.0183 16.0386 14.0046 16.0142 13.9802C15.9899 13.9559 15.9761 13.9228 15.976 13.8884V13.5906C15.976 13.5192 16.0346 13.4606 16.106 13.4606ZM17.1394 13.4606H17.4372C17.5086 13.4606 17.5672 13.5192 17.5672 13.5906V13.8884C17.5672 13.9229 17.5535 13.9559 17.5291 13.9803C17.5048 14.0047 17.4717 14.0184 17.4372 14.0185H17.1394C17.105 14.0183 17.072 14.0046 17.0476 13.9802C17.0232 13.9559 17.0095 13.9229 17.0094 13.8884V13.5906C17.0093 13.5735 17.0127 13.5566 17.0192 13.5408C17.0257 13.525 17.0353 13.5107 17.0474 13.4986C17.0595 13.4865 17.0738 13.4769 17.0896 13.4704C17.1054 13.4639 17.1223 13.4606 17.1394 13.4606ZM18.172 13.4606H18.4699C18.5413 13.4606 18.5999 13.5192 18.5999 13.5906V13.8884C18.5999 13.9229 18.5862 13.9559 18.5618 13.9803C18.5374 14.0047 18.5044 14.0184 18.4699 14.0185H18.172C18.1375 14.0185 18.1043 14.0048 18.0798 13.9804C18.0554 13.956 18.0415 13.9229 18.0414 13.8884V13.5906C18.0418 13.5561 18.0557 13.5232 18.0801 13.4989C18.1045 13.4746 18.1376 13.4608 18.172 13.4606ZM19.2048 13.4606H19.5026C19.5747 13.4606 19.6333 13.5192 19.6333 13.5906V13.8884C19.6333 13.9055 19.6298 13.9225 19.6233 13.9383C19.6167 13.9541 19.6071 13.9684 19.5949 13.9805C19.5828 13.9926 19.5684 14.0022 19.5526 14.0087C19.5367 14.0152 19.5198 14.0185 19.5026 14.0185H19.2048C19.1703 14.0183 19.1373 14.0046 19.113 13.9802C19.0886 13.9559 19.0749 13.9228 19.0748 13.8884V13.5906C19.0748 13.5192 19.1334 13.4606 19.2048 13.4606ZM16.1439 14.5866H16.4417C16.5131 14.5866 16.5717 14.6452 16.5717 14.7166V15.0152C16.5716 15.0496 16.5579 15.0826 16.5335 15.1069C16.5092 15.1313 16.4762 15.145 16.4417 15.1451H16.1439C16.1095 15.1451 16.0764 15.1314 16.052 15.1071C16.0276 15.0827 16.0139 15.0496 16.0139 15.0152V14.7173C16.0138 14.7001 16.0171 14.6832 16.0236 14.6673C16.0301 14.6514 16.0396 14.637 16.0517 14.6249C16.0638 14.6128 16.0782 14.6031 16.094 14.5966C16.1098 14.59 16.1268 14.5866 16.1439 14.5866ZM17.1765 14.5866H17.4744C17.5458 14.5866 17.6044 14.6452 17.6044 14.7166V15.0152C17.6043 15.0496 17.5905 15.0826 17.5662 15.1069C17.5418 15.1313 17.5089 15.145 17.4744 15.1451H17.1765C17.1421 15.145 17.1091 15.1313 17.0848 15.1069C17.0604 15.0826 17.0467 15.0496 17.0465 15.0152V14.7173C17.0464 14.7001 17.0497 14.6832 17.0562 14.6673C17.0627 14.6515 17.0723 14.637 17.0843 14.6249C17.0964 14.6128 17.1108 14.6031 17.1266 14.5966C17.1424 14.59 17.1594 14.5866 17.1765 14.5866ZM18.2093 14.5866H18.5072C18.5792 14.5866 18.6378 14.6452 18.6378 14.7166V15.0152C18.6376 15.0497 18.6238 15.0828 18.5993 15.1071C18.5748 15.1315 18.5417 15.1451 18.5072 15.1451H18.2093C18.1748 15.145 18.1419 15.1313 18.1175 15.1069C18.0932 15.0826 18.0794 15.0496 18.0793 15.0152V14.7173C18.0793 14.6452 18.1379 14.5866 18.2093 14.5866ZM17.1394 12.2509H17.4372C17.5086 12.2509 17.5672 12.3095 17.5672 12.3808V12.6787C17.5672 12.7131 17.5535 12.7462 17.5291 12.7706C17.5048 12.795 17.4717 12.8087 17.4372 12.8087H17.1394C17.105 12.8086 17.072 12.7948 17.0476 12.7705C17.0232 12.7461 17.0095 12.7131 17.0094 12.6787V12.3808C17.0093 12.3638 17.0127 12.3468 17.0192 12.3311C17.0257 12.3153 17.0353 12.3009 17.0474 12.2888C17.0595 12.2768 17.0738 12.2672 17.0896 12.2607C17.1054 12.2542 17.1223 12.2508 17.1394 12.2509ZM18.172 12.2509H18.4699C18.5413 12.2509 18.5999 12.3095 18.5999 12.3808V12.6787C18.5999 12.7131 18.5862 12.7462 18.5618 12.7706C18.5374 12.795 18.5044 12.8087 18.4699 12.8087H18.172C18.1375 12.8087 18.1043 12.795 18.0798 12.7707C18.0554 12.7463 18.0415 12.7132 18.0414 12.6787V12.3808C18.0418 12.3464 18.0557 12.3134 18.0801 12.2891C18.1045 12.2648 18.1376 12.2511 18.172 12.2509ZM29.5839 16.9037H29.8817C29.9161 16.9038 29.9492 16.9175 29.9735 16.9418C29.9979 16.9662 30.0116 16.9993 30.0117 17.0337V17.3316C30.0116 17.3661 29.9979 17.3991 29.9735 17.4235C29.9492 17.4478 29.9161 17.4616 29.8817 17.4616H29.5839C29.5494 17.4615 29.5164 17.4478 29.492 17.4234C29.4677 17.399 29.4539 17.366 29.4538 17.3316V17.0337C29.4538 17.0166 29.4571 16.9997 29.4636 16.9839C29.4702 16.9681 29.4797 16.9538 29.4918 16.9417C29.5039 16.9296 29.5183 16.9201 29.5341 16.9135C29.5498 16.907 29.5668 16.9037 29.5839 16.9037ZM30.6165 16.9037H30.9143C30.9857 16.9037 31.0443 16.9623 31.0443 17.0337V17.3316C31.0443 17.3661 31.0306 17.3991 31.0062 17.4235C30.9819 17.4478 30.9488 17.4616 30.9143 17.4616H30.6165C30.582 17.4615 30.549 17.4477 30.5247 17.4234C30.5003 17.399 30.4866 17.366 30.4865 17.3316V17.0337C30.4865 16.9623 30.5451 16.9037 30.6165 16.9037ZM31.6498 16.9037H31.9477C32.0191 16.9037 32.0777 16.9623 32.0777 17.0337V17.3316C32.0777 17.3661 32.064 17.3991 32.0396 17.4235C32.0152 17.4478 31.9822 17.4616 31.9477 17.4616H31.6498C31.6154 17.4615 31.5824 17.4477 31.5581 17.4234C31.5337 17.399 31.52 17.366 31.5199 17.3316V17.0337C31.5198 17.0166 31.5232 16.9997 31.5297 16.9839C31.5362 16.9681 31.5458 16.9538 31.5578 16.9417C31.5699 16.9296 31.5843 16.9201 31.6001 16.9135C31.6158 16.907 31.6328 16.9037 31.6498 16.9037ZM32.6825 16.9037H32.9803C33.0518 16.9037 33.1104 16.9623 33.1104 17.0337V17.3316C33.1104 17.3661 33.0966 17.3991 33.0723 17.4235C33.0479 17.4479 33.0148 17.4616 32.9803 17.4616H32.6825C32.648 17.4616 32.6149 17.4479 32.5904 17.4236C32.5659 17.3992 32.5521 17.3661 32.5519 17.3316V17.0337C32.5523 16.9993 32.5662 16.9663 32.5906 16.942C32.6151 16.9177 32.6481 16.9039 32.6825 16.9037ZM33.7153 16.9037H34.0131C34.0851 16.9037 34.1437 16.9623 34.1437 17.0337V17.3316C34.1437 17.3487 34.1403 17.3657 34.1337 17.3815C34.1271 17.3973 34.1175 17.4116 34.1054 17.4237C34.0932 17.4358 34.0788 17.4453 34.063 17.4518C34.0472 17.4583 34.0302 17.4616 34.0131 17.4616H33.7153C33.6808 17.4615 33.6478 17.4477 33.6235 17.4234C33.5991 17.399 33.5854 17.366 33.5853 17.3316V17.0337C33.5853 16.9623 33.6439 16.9037 33.7153 16.9037ZM30.6544 18.0298H30.9522C31.0236 18.0298 31.0822 18.0884 31.0822 18.1598V18.4583C31.0821 18.4927 31.0684 18.5257 31.044 18.5501C31.0197 18.5744 30.9867 18.5881 30.9522 18.5883H30.6544C30.6199 18.5882 30.5869 18.5745 30.5625 18.5502C30.5381 18.5258 30.5244 18.4928 30.5244 18.4583V18.1605C30.5243 18.1433 30.5276 18.1264 30.534 18.1105C30.5405 18.0947 30.5501 18.0802 30.5622 18.0681C30.5743 18.056 30.5886 18.0463 30.6044 18.0398C30.6203 18.0332 30.6372 18.0298 30.6544 18.0298ZM31.687 18.0298H31.9849C32.0563 18.0298 32.1149 18.0884 32.1149 18.1598V18.4583C32.1148 18.4927 32.101 18.5257 32.0767 18.5501C32.0523 18.5744 32.0193 18.5882 31.9849 18.5883H31.687C31.6526 18.5881 31.6196 18.5744 31.5953 18.5501C31.5709 18.5257 31.5572 18.4927 31.557 18.4583V18.1605C31.5569 18.1433 31.5602 18.1264 31.5667 18.1105C31.5732 18.0947 31.5828 18.0802 31.5949 18.0681C31.6069 18.056 31.6213 18.0463 31.6371 18.0398C31.6529 18.0332 31.6699 18.0298 31.687 18.0298ZM32.7198 18.0298H33.0177C33.0896 18.0298 33.1482 18.0884 33.1482 18.1598V18.4583C33.1481 18.4928 33.1342 18.5259 33.1098 18.5502C33.0853 18.5746 33.0522 18.5883 33.0177 18.5883H32.7198C32.6854 18.5881 32.6524 18.5744 32.628 18.5501C32.6037 18.5257 32.5899 18.4927 32.5898 18.4583V18.1605C32.5898 18.0884 32.6484 18.0298 32.7198 18.0298ZM31.6498 15.694H31.9477C32.0191 15.694 32.0777 15.7526 32.0777 15.824V16.1219C32.0777 16.1563 32.064 16.1894 32.0396 16.2137C32.0152 16.2381 31.9822 16.2518 31.9477 16.2519H31.6498C31.6154 16.2517 31.5824 16.238 31.5581 16.2136C31.5337 16.1893 31.52 16.1563 31.5199 16.1219V15.824C31.5198 15.8069 31.5232 15.79 31.5297 15.7742C31.5362 15.7584 31.5458 15.7441 31.5578 15.732C31.5699 15.7199 31.5843 15.7103 31.6001 15.7038C31.6158 15.6973 31.6328 15.6939 31.6498 15.694ZM32.6825 15.694H32.9803C33.0518 15.694 33.1104 15.7526 33.1104 15.824V16.1219C33.1104 16.1563 33.0966 16.1894 33.0723 16.2138C33.0479 16.2381 33.0148 16.2518 32.9803 16.2519H32.6825C32.648 16.2519 32.6149 16.2382 32.5904 16.2138C32.5659 16.1895 32.5521 16.1564 32.5519 16.1219V15.824C32.5523 15.7895 32.5662 15.7566 32.5906 15.7323C32.6151 15.708 32.6481 15.6942 32.6825 15.694Z" fill="#E1E4E5"/>
<path fill-rule="evenodd" clip-rule="evenodd" d="M9.04102 18.5633C9.04102 18.1559 9.37133 17.8255 9.77879 17.8255H15.8454C16.2528 17.8255 16.5832 18.1559 16.5832 18.5633C16.5832 18.9708 16.2528 19.3011 15.8454 19.3011H9.77879C9.37133 19.3011 9.04102 18.9708 9.04102 18.5633ZM57.2453 22.2525C57.2453 21.845 56.915 21.5146 56.5075 21.5146H50.441C50.0335 21.5146 49.7031 21.845 49.7031 22.2525C49.7031 22.6599 50.0335 22.9902 50.441 22.9902H56.5075C56.915 22.9902 57.2453 22.6599 57.2453 22.2525ZM9.04102 21.2687C9.04102 20.8612 9.37133 20.5309 9.77879 20.5309H13.058C13.4655 20.5309 13.7959 20.8612 13.7959 21.2687C13.7959 21.6762 13.4655 22.0065 13.058 22.0065H9.77879C9.37133 22.0065 9.04102 21.6762 9.04102 21.2687ZM57.2453 24.9578C57.2453 24.5503 56.915 24.22 56.5075 24.22H53.2283C52.8208 24.22 52.4905 24.5503 52.4905 24.9578C52.4905 25.3653 52.8208 25.6956 53.2283 25.6956H56.5075C56.915 25.6956 57.2453 25.3653 57.2453 24.9578ZM9.04102 23.7281C9.04102 23.3206 9.37133 22.9902 9.77879 22.9902H13.058C13.4655 22.9902 13.7959 23.3206 13.7959 23.7281C13.7959 24.1355 13.4655 24.4659 13.058 24.4659H9.77879C9.37133 24.4659 9.04102 24.1355 9.04102 23.7281ZM57.2453 27.4172C57.2453 27.0097 56.915 26.6794 56.5075 26.6794H53.2283C52.8208 26.6794 52.4905 27.0097 52.4905 27.4172C52.4905 27.8246 52.8208 28.155 53.2283 28.155H56.5075C56.915 28.155 57.2453 27.8246 57.2453 27.4172Z" fill="white" stroke="#E1E4E5" stroke-width="0.284444" stroke-linecap="round" stroke-linejoin="round"/>
<path d="M54.7479 16.7064C53.6099 16.976 52.4062 16.0108 52.4062 16.0108C52.4062 16.0108 53.0486 14.6091 54.187 14.3404C55.325 14.0707 56.5283 15.0351 56.5283 15.0351C56.5283 15.0351 55.886 16.4368 54.7479 16.7064Z" fill="url(#paint2_linear_64_1223)"/>
<path d="M23.3817 7.80102C24.5798 8.62627 26.4102 8.04941 26.4102 8.04941C26.4102 8.04941 26.2969 6.13475 25.0979 5.31028C23.8999 4.48504 22.0703 5.06111 22.0703 5.06111C22.0703 5.06111 22.1836 6.97578 23.3817 7.80102Z" fill="url(#paint3_linear_64_1223)"/>
<path d="M22.1569 37.0955C23.3097 37.9076 25.0897 37.3673 25.0897 37.3673C25.0897 37.3673 24.9995 35.5105 23.846 34.699C22.6933 33.8868 20.9141 34.4264 20.9141 34.4264C20.9141 34.4264 21.0042 36.2833 22.1569 37.0955Z" fill="url(#paint4_linear_64_1223)"/>
<path d="M51.0777 32.418C50.5446 32.418 50.1124 32.8314 50.1124 33.3413C50.1124 33.8512 50.5446 34.2646 51.0777 34.2646C51.6108 34.2646 52.043 33.8512 52.043 33.3413C52.043 32.8314 51.6108 32.418 51.0777 32.418Z" fill="#0F111A"/>
<path d="M32.64 8.17774C32.1295 8.17774 31.7156 8.57829 31.7156 9.07239C31.7156 9.56649 32.1295 9.96704 32.64 9.96704C33.1506 9.96704 33.5645 9.56649 33.5645 9.07239C33.5645 8.57829 33.1506 8.17774 32.64 8.17774Z" fill="#ED3957"/>
<path d="M7.28835 22.4379C7.03338 22.4379 6.82669 22.2312 6.82669 21.9762C6.82669 21.7213 7.03338 21.5146 7.28835 21.5146C7.54331 21.5146 7.75 21.7213 7.75 21.9762C7.75 22.2312 7.54331 22.4379 7.28835 22.4379Z" fill="#FF8357"/>
<path d="M51.7319 11.2262C51.2452 11.2262 50.8506 10.8316 50.8506 10.3449C50.8506 9.8581 51.2452 9.4635 51.7319 9.4635C52.2187 9.4635 52.6133 9.8581 52.6133 10.3449C52.6133 10.8316 52.2187 11.2262 51.7319 11.2262Z" fill="#ED3957"/>
<path d="M38.7995 37.2548C38.2561 37.2548 37.8157 36.8327 37.8157 36.312C37.8157 35.7913 38.2561 35.3692 38.7995 35.3692C39.3428 35.3692 39.7832 35.7913 39.7832 36.312C39.7832 36.8327 39.3428 37.2548 38.7995 37.2548Z" fill="#E1E4E5"/>
<path d="M13.303 28.9748C13.0314 28.9748 12.8112 28.7546 12.8112 28.4829C12.8112 28.2112 13.0314 27.991 13.303 27.991C13.5747 27.991 13.7949 28.2112 13.7949 28.4829C13.7949 28.7546 13.5747 28.9748 13.303 28.9748Z" fill="#E1E4E5"/>
<path d="M29.7473 38.3342C29.585 38.3342 29.4535 38.2027 29.4535 38.0405C29.4535 37.8782 29.585 37.7467 29.7473 37.7467C29.9095 37.7467 30.041 37.8782 30.041 38.0405C30.041 38.2027 29.9095 38.3342 29.7473 38.3342Z" fill="#E1E4E5"/>
<path d="M47.0881 8.58134C46.8563 8.58134 46.6684 8.39343 46.6684 8.16164C46.6684 7.92985 46.8563 7.74194 47.0881 7.74194C47.3199 7.74194 47.5078 7.92985 47.5078 8.16164C47.5078 8.39343 47.3199 8.58134 47.0881 8.58134Z" fill="#E1E4E5"/>
<path d="M8.6269 31.4204C8.68552 31.6392 8.5557 31.8641 8.33692 31.9227C8.11815 31.9813 7.89328 31.8515 7.83466 31.6327C7.77604 31.4139 7.90587 31.1891 8.12464 31.1304C8.34341 31.0718 8.56828 31.2016 8.6269 31.4204Z" fill="#E1E4E5"/>
<path d="M19.2591 9.07898C18.9578 9.07898 18.7136 8.83473 18.7136 8.53342C18.7136 8.23211 18.9578 7.98785 19.2591 7.98785C19.5604 7.98785 19.8047 8.23211 19.8047 8.53342C19.8047 8.83473 19.5604 9.07898 19.2591 9.07898Z" fill="#E1E4E5"/>
<path d="M52.0901 20.7104C51.8583 20.7104 51.6704 20.5601 51.6704 20.3747C51.6704 20.1892 51.8583 20.0389 52.0901 20.0389C52.3219 20.0389 52.5098 20.1892 52.5098 20.3747C52.5098 20.5601 52.3219 20.7104 52.0901 20.7104Z" fill="#E1E4E5"/>
<path d="M38.8484 9.92658C38.9704 10.3819 38.7001 10.8499 38.2448 10.972C37.7895 11.094 37.3214 10.8237 37.1994 10.3684C37.0774 9.91307 37.3476 9.44504 37.803 9.32303C38.2583 9.20102 38.7263 9.47124 38.8484 9.92658Z" fill="#E1E4E5"/>
<path d="M56.1096 17.8255H56.1205C56.1855 18.7466 56.8706 18.7608 56.8706 18.7608C56.8706 18.7608 56.1152 18.7756 56.1152 19.84C56.1152 18.7756 55.3598 18.7608 55.3598 18.7608C55.3598 18.7608 56.0445 18.7466 56.1096 17.8255ZM10.3323 12.2509H10.3512C10.4632 13.8629 11.643 13.8877 11.643 13.8877C11.643 13.8877 10.342 13.9135 10.342 15.7762C10.342 13.9135 9.04102 13.8877 9.04102 13.8877C9.04102 13.8877 10.2204 13.8629 10.3323 12.2509Z" fill="#E1E4E5"/>
<path d="M20.7067 22.0863C20.155 17.8735 23.0622 12.8636 29.2578 13.6234C34.513 14.2678 35.6521 13.4369 37.9145 12.2531C39.4085 11.4715 41.7457 10.0887 43.6418 14.0429C46.1235 19.2183 40.3034 27.3327 35.1053 29.8214C30.1346 32.2014 21.7075 29.7315 20.7067 22.0863Z" fill="#1F9BA6"/>
<path d="M27.4648 21.9433L30.3787 24.8863L36.7381 18.4613" stroke="white" stroke-width="2.78194" stroke-linecap="round" stroke-linejoin="round"/>
<defs>
<linearGradient id="paint0_linear_64_1223" x1="38.961" y1="53.0991" x2="22.3562" y2="-21.816" gradientUnits="userSpaceOnUse">
<stop stop-color="white"/>
<stop offset="1" stop-color="#EEEEEE"/>
</linearGradient>
<linearGradient id="paint1_linear_64_1223" x1="41.3892" y1="24.234" x2="33.6229" y2="-10.6644" gradientUnits="userSpaceOnUse">
<stop stop-color="white"/>
<stop offset="1" stop-color="#EEEEEE"/>
</linearGradient>
<linearGradient id="paint2_linear_64_1223" x1="50.4624" y1="17.3767" x2="60.4247" y2="12.6702" gradientUnits="userSpaceOnUse">
<stop stop-color="white"/>
<stop offset="1" stop-color="#EEEEEE"/>
</linearGradient>
<linearGradient id="paint3_linear_64_1223" x1="28.0488" y1="10.5087" x2="18.6177" y2="0.563831" gradientUnits="userSpaceOnUse">
<stop stop-color="white"/>
<stop offset="1" stop-color="#EEEEEE"/>
</linearGradient>
<linearGradient id="paint4_linear_64_1223" x1="26.6526" y1="39.7678" x2="17.614" y2="30.0321" gradientUnits="userSpaceOnUse">
<stop stop-color="white"/>
<stop offset="1" stop-color="#EEEEEE"/>
</linearGradient>
</defs>
</svg>
