<svg width="16" height="21" viewBox="0 0 16 21" fill="none" xmlns="http://www.w3.org/2000/svg">
<path d="M8 20.5001C5.68333 19.9167 3.77067 18.5874 2.262 16.5121C0.753334 14.4367 -0.000666225 12.1327 4.41696e-07 9.60006V3.50006L8 0.500061L16 3.50006V9.60006C16 12.1334 15.2457 14.4377 13.737 16.5131C12.2283 18.5884 10.316 19.9174 8 20.5001ZM6 14.5001H10C10.2833 14.5001 10.521 14.4041 10.713 14.2121C10.905 14.0201 11.0007 13.7827 11 13.5001V10.5001C11 10.2167 10.904 9.97906 10.712 9.78706C10.52 9.59506 10.2827 9.49939 10 9.50006V8.50006C10 7.95006 9.804 7.47906 9.412 7.08706C9.02 6.69506 8.54933 6.49939 8 6.50006C7.45 6.50006 6.979 6.69606 6.587 7.08806C6.195 7.48006 5.99933 7.95073 6 8.50006V9.50006C5.71667 9.50006 5.479 9.59606 5.287 9.78806C5.095 9.98006 4.99933 10.2174 5 10.5001V13.5001C5 13.7834 5.096 14.0211 5.288 14.2131C5.48 14.4051 5.71733 14.5007 6 14.5001ZM7 9.50006V8.50006C7 8.21673 7.096 7.97906 7.288 7.78706C7.48 7.59506 7.71733 7.49939 8 7.50006C8.28333 7.50006 8.521 7.59606 8.713 7.78806C8.905 7.98006 9.00067 8.21739 9 8.50006V9.50006H7Z" fill="#FA536E"/>
</svg>
