<svg width="24" height="23" viewBox="0 0 24 23" fill="none" xmlns="http://www.w3.org/2000/svg">
<g clip-path="url(#clip0_46_650)">
<path d="M14.0536 12.5658C13.7056 12.2178 13.2856 11.9898 12.7936 11.8938C13.2736 11.7978 13.6456 11.5818 13.9336 11.2458C14.2096 10.9098 14.3536 10.4898 14.3536 9.9738C14.3536 9.5418 14.2336 9.1458 14.0056 8.8098C13.7776 8.4738 13.4536 8.2218 13.0216 8.0298C12.5896 7.8498 12.0856 7.7538 11.5096 7.7538C10.6576 7.7538 9.97359 7.9698 9.46959 8.4018C8.95359 8.8338 8.68959 9.4338 8.68959 10.1898H9.69759C9.69759 9.7218 9.87759 9.3498 10.2136 9.0738C10.5496 8.7978 10.9936 8.6538 11.5456 8.6538C12.0616 8.6538 12.4816 8.7858 12.8176 9.0258C13.1536 9.2778 13.3216 9.6138 13.3216 10.0338C13.3216 10.4778 13.1536 10.8378 12.8296 11.1018C12.4936 11.3778 12.0256 11.5098 11.4136 11.5098H10.7536V12.3858H11.4736C12.1216 12.3858 12.6376 12.5178 12.9976 12.7698C13.3576 13.0338 13.5376 13.3818 13.5376 13.8258C13.5376 14.3058 13.3456 14.6778 12.9736 14.9658C12.6016 15.2538 12.1336 15.3978 11.5696 15.3978C10.9456 15.3978 10.4536 15.2418 10.0696 14.9298C9.68559 14.6178 9.49359 14.1858 9.49359 13.6338H8.46159C8.46159 14.4618 8.73759 15.1098 9.28959 15.5898C9.84159 16.0698 10.5736 16.2978 11.5096 16.2978C12.1096 16.2978 12.6496 16.2018 13.1176 15.9978C13.5736 15.8058 13.9336 15.5178 14.1856 15.1578C14.4376 14.7978 14.5696 14.3778 14.5696 13.8978C14.5696 13.3578 14.3896 12.9138 14.0536 12.5658Z" fill="#0F111A"/>
</g>
<rect x="0.370968" y="0.370968" width="23.06" height="22.2581" rx="11.129" stroke="#0F111A" stroke-width="0.741935"/>
<defs>
<clipPath id="clip0_46_650">
<rect width="17.8065" height="17.8065" fill="white" transform="translate(2.99805 2.59677)"/>
</clipPath>
</defs>
</svg>
