<svg width="24" height="23" viewBox="0 0 24 23" fill="none" xmlns="http://www.w3.org/2000/svg">
<g clip-path="url(#clip0_46_642)">
<path d="M12.6656 11.5418L9.40159 14.3738V15.2258H15.1856V14.3018H10.7936L13.3136 12.1658C13.7096 11.8298 14.0336 11.5178 14.2856 11.2538C14.5256 10.9898 14.7296 10.6898 14.8856 10.3538C15.0416 10.0298 15.1256 9.6698 15.1256 9.2618C15.1256 8.4938 14.8616 7.8818 14.3576 7.4258C13.8536 6.9698 13.1456 6.7418 12.2576 6.7418C11.7056 6.7418 11.2136 6.8618 10.7816 7.0898C10.3496 7.3298 10.0256 7.6418 9.79759 8.0498C9.55759 8.4578 9.44959 8.9258 9.44959 9.4538V9.6698H10.4576V9.5138C10.4576 8.9378 10.6136 8.4818 10.9496 8.1458C11.2736 7.8098 11.7056 7.6418 12.2576 7.6418C12.8096 7.6418 13.2536 7.7978 13.5896 8.0858C13.9256 8.3858 14.0936 8.7938 14.0936 9.3098C14.0936 9.7298 13.9736 10.1018 13.7336 10.4378C13.4936 10.7738 13.1336 11.1338 12.6656 11.5418Z" fill="#0F111A"/>
</g>
<rect x="0.370968" y="0.370968" width="23.06" height="22.2581" rx="11.129" stroke="#0F111A" stroke-width="0.741935"/>
<defs>
<clipPath id="clip0_46_642">
<rect width="17.8065" height="17.8065" fill="white" transform="translate(2.99805 2.59677)"/>
</clipPath>
</defs>
</svg>
