<svg width="21" height="21" viewBox="0 0 21 21" fill="none" xmlns="http://www.w3.org/2000/svg">
<path d="M11.6854 9.70006L10.2354 8.27506C10.0354 8.09173 9.80202 8.00006 9.53535 8.00006C9.26869 8.00006 9.03535 8.10006 8.83535 8.30006C8.65202 8.4834 8.56035 8.71673 8.56035 9.00006C8.56035 9.2834 8.65202 9.51673 8.83535 9.70006L10.9854 11.8501C11.1687 12.0334 11.402 12.1251 11.6854 12.1251C11.9687 12.1251 12.202 12.0334 12.3854 11.8501L16.6354 7.60006C16.8354 7.40006 16.9354 7.1624 16.9354 6.88706C16.9354 6.61173 16.8354 6.3744 16.6354 6.17506C16.4354 5.97506 16.198 5.87506 15.9234 5.87506C15.6487 5.87506 15.411 5.97506 15.2104 6.17506L11.6854 9.70006ZM6.98535 16.5001C6.43535 16.5001 5.96435 16.3041 5.57235 15.9121C5.18035 15.5201 4.98469 15.0494 4.98535 14.5001V2.50006C4.98535 1.95006 5.18135 1.47906 5.57335 1.08706C5.96535 0.695063 6.43602 0.499396 6.98535 0.500063H18.9854C19.5354 0.500063 20.0064 0.696063 20.3984 1.08806C20.7904 1.48006 20.986 1.95073 20.9854 2.50006V14.5001C20.9854 15.0501 20.7894 15.5211 20.3974 15.9131C20.0054 16.3051 19.5347 16.5007 18.9854 16.5001H6.98535ZM2.98535 20.5001C2.43535 20.5001 1.96435 20.3041 1.57235 19.9121C1.18035 19.5201 0.984687 19.0494 0.985353 18.5001V5.50006C0.985353 5.21673 1.08135 4.97906 1.27335 4.78706C1.46535 4.59506 1.70269 4.4994 1.98535 4.50006C2.26869 4.50006 2.50635 4.59606 2.69835 4.78806C2.89035 4.98006 2.98602 5.2174 2.98535 5.50006V18.5001H15.9854C16.2687 18.5001 16.5064 18.5961 16.6984 18.7881C16.8904 18.9801 16.986 19.2174 16.9854 19.5001C16.9854 19.7834 16.8894 20.0211 16.6974 20.2131C16.5054 20.4051 16.268 20.5007 15.9854 20.5001H2.98535Z" fill="#FA536E"/>
</svg>
