<svg width="453" height="291" viewBox="0 0 453 291" fill="none" xmlns="http://www.w3.org/2000/svg">
<g clip-path="url(#clip0_57_436)">
<path d="M125.103 74.1533C125.103 63.5665 133.685 54.9844 144.271 54.9844H351.598C362.185 54.9844 370.767 63.5665 370.767 74.1533V219.433C370.767 230.02 362.185 238.602 351.598 238.602H144.271C133.685 238.602 125.103 230.02 125.103 219.433V74.1533Z" fill="white" stroke="#5C5D66" stroke-width="2.01778"/>
<path d="M352.374 110.473H283.399C281.671 110.473 280.27 111.874 280.27 113.603C280.27 115.331 281.671 116.732 283.399 116.732H352.374C354.102 116.732 355.503 115.331 355.503 113.603C355.503 111.874 354.102 110.473 352.374 110.473Z" fill="white" stroke="#5C5D66" stroke-width="2.01778"/>
<path d="M266.65 134.295C266.65 133.465 266.979 132.669 267.566 132.082C268.153 131.495 268.949 131.166 269.779 131.166H352.548C353.378 131.166 354.175 131.495 354.761 132.082C355.348 132.669 355.678 133.465 355.678 134.295C355.678 135.125 355.348 135.921 354.761 136.508C354.175 137.095 353.378 137.425 352.548 137.425H269.779C268.949 137.425 268.153 137.095 267.566 136.508C266.979 135.921 266.65 135.125 266.65 134.295ZM147.298 70.1177C147.298 72.3958 145.556 74.1533 143.515 74.1533C141.473 74.1533 139.731 72.3958 139.731 70.1177C139.731 67.8396 141.473 66.0822 143.515 66.0822C145.556 66.0822 147.298 67.8396 147.298 70.1177Z" fill="white" stroke="#5C5D66" stroke-width="2.01778"/>
<path d="M157.891 74.1533C160.12 74.1533 161.927 72.3465 161.927 70.1177C161.927 67.8889 160.12 66.0822 157.891 66.0822C155.662 66.0822 153.855 67.8889 153.855 70.1177C153.855 72.3465 155.662 74.1533 157.891 74.1533Z" fill="white" stroke="#E1E4E5" stroke-width="2.01778"/>
<path d="M172.016 74.1533C174.245 74.1533 176.052 72.3465 176.052 70.1177C176.052 67.8889 174.245 66.0822 172.016 66.0822C169.787 66.0822 167.98 67.8889 167.98 70.1177C167.98 72.3465 169.787 74.1533 172.016 74.1533Z" fill="white" stroke="#E1E4E5" stroke-width="2.01778"/>
<path d="M297.538 159.909C297.538 153.609 302.645 148.502 308.945 148.502H344.811C351.111 148.502 356.218 153.609 356.218 159.909C356.218 166.208 351.111 171.315 344.812 171.315H308.945C302.645 171.315 297.538 166.208 297.538 159.909ZM297.538 187.499C297.538 186.669 297.868 185.873 298.455 185.286C299.042 184.699 299.838 184.369 300.668 184.369H353.089C353.919 184.369 354.715 184.699 355.301 185.286C355.888 185.873 356.218 186.669 356.218 187.499C356.218 188.329 355.888 189.125 355.301 189.712C354.715 190.299 353.919 190.628 353.089 190.628H300.668C299.838 190.628 299.042 190.299 298.455 189.712C297.868 189.125 297.538 188.329 297.538 187.499ZM297.538 208.191C297.538 207.361 297.868 206.565 298.455 205.978C299.042 205.391 299.838 205.062 300.668 205.062H353.089C353.919 205.062 354.715 205.391 355.301 205.978C355.888 206.565 356.218 207.361 356.218 208.191C356.218 209.021 355.888 209.817 355.301 210.404C354.715 210.991 353.919 211.321 353.089 211.321H300.668C299.838 211.321 299.042 210.991 298.455 210.404C297.868 209.817 297.538 209.021 297.538 208.191Z" fill="white" stroke="#5C5D66" stroke-width="2.01778"/>
<path d="M211.001 211.701C243.967 211.701 270.69 184.977 270.69 152.012C270.69 119.047 243.967 92.3229 211.001 92.3229C178.036 92.3229 151.312 119.047 151.312 152.012C151.312 184.977 178.036 211.701 211.001 211.701Z" fill="white" stroke="#2DAD91" stroke-width="2.01778"/>
<path d="M151.312 152.011C151.312 144.651 152.644 137.605 155.079 131.097L228.733 160.425L248.476 198.472C238.231 206.746 225.196 211.7 211.001 211.7C178.036 211.7 151.312 184.977 151.312 152.011Z" fill="white" stroke="#E1E4E5" stroke-width="2.01778"/>
<path d="M212.292 152.093L251.956 108.59C263.492 119.474 270.69 134.902 270.69 152.012C270.69 171.831 261.031 189.395 246.159 200.253L212.292 152.093Z" fill="white" stroke="#E1E4E5" stroke-width="2.01778"/>
<path d="M211.11 195.724C235.209 195.724 254.744 176.189 254.744 152.09C254.744 127.991 235.209 108.455 211.11 108.455C187.011 108.455 167.476 127.991 167.476 152.09C167.476 176.189 187.011 195.724 211.11 195.724Z" fill="white" stroke="#2DAD91" stroke-width="2.01778"/>
<path opacity="0.76" fill-rule="evenodd" clip-rule="evenodd" d="M113.248 134.687L171.007 224.982H55.4893L113.248 134.687Z" fill="url(#paint0_linear_57_436)"/>
<path opacity="0.76" fill-rule="evenodd" clip-rule="evenodd" d="M241.623 72.5653L261.2 103.019H222.046L241.623 72.5653Z" fill="url(#paint1_linear_57_436)"/>
<path d="M74.9797 160.302C74.9797 163.308 72.4222 165.741 69.2633 165.741C66.1045 165.741 63.5596 163.296 63.5596 160.302C63.5596 157.297 66.1166 154.864 69.2759 154.864C72.4348 154.864 74.9797 157.297 74.9797 160.302Z" stroke="#E1E4E5" stroke-width="2.63572" stroke-miterlimit="10"/>
<path d="M80.5172 115.519C75.6755 119.75 67.3466 118.145 67.3466 118.145C67.3466 118.145 66.873 109.681 71.7192 105.454C76.5608 101.223 84.8857 102.824 84.8857 102.824C84.8857 102.824 85.3589 111.288 80.5172 115.519Z" fill="#FFD9CC"/>
<path d="M160.676 87.1067C160.252 88.6885 161.191 90.3144 162.773 90.7382C164.355 91.162 165.981 90.2233 166.404 88.6416C166.828 87.0598 165.89 85.4339 164.308 85.01C162.726 84.5862 161.1 85.5249 160.676 87.1067Z" fill="#E1E4E5"/>
<path d="M148.57 110.311C148.146 111.893 149.085 113.519 150.666 113.943C152.248 114.367 153.874 113.428 154.298 111.846C154.722 110.264 153.783 108.638 152.201 108.215C150.62 107.791 148.994 108.729 148.57 110.311Z" fill="#E1E4E5"/>
<path d="M217.174 69.4512C216.75 71.033 217.689 72.6589 219.271 73.0827C220.853 73.5065 222.479 72.5678 222.902 70.986C223.326 69.4042 222.388 67.7784 220.806 67.3545C219.224 66.9307 217.598 67.8694 217.174 69.4512Z" fill="#E1E4E5"/>
<path d="M308.215 79.5666C307.937 80.6061 308.554 81.6746 309.593 81.9532C310.633 82.2317 311.701 81.6148 311.98 80.5753C312.259 79.5357 311.642 78.4672 310.602 78.1886C309.563 77.9101 308.494 78.527 308.215 79.5666Z" fill="#E1E4E5"/>
<path d="M392.721 191.022C392.297 192.604 393.236 194.23 394.818 194.654C396.4 195.078 398.026 194.139 398.449 192.557C398.873 190.975 397.934 189.35 396.353 188.926C394.771 188.502 393.145 189.441 392.721 191.022Z" fill="#E1E4E5"/>
<mask id="path-20-inside-1_57_436" fill="white">
<path d="M327.909 225.452L320.792 232.569C320.532 232.828 320.532 233.248 320.791 233.507C321.051 233.766 321.471 233.766 321.73 233.507L328.847 226.39C329.107 226.131 329.107 225.71 328.847 225.451C328.588 225.192 328.168 225.192 327.909 225.452Z"/>
</mask>
<path d="M327.909 225.452L320.792 232.569C320.532 232.828 320.532 233.248 320.791 233.507C321.051 233.766 321.471 233.766 321.73 233.507L328.847 226.39C329.107 226.131 329.107 225.71 328.847 225.451C328.588 225.192 328.168 225.192 327.909 225.452Z" fill="#E1E4E5" stroke="#5C5D66" stroke-width="1.00889" mask="url(#path-20-inside-1_57_436)"/>
<mask id="path-21-inside-2_57_436" fill="white">
<path d="M327.212 230.547L325.16 232.6C324.901 232.859 324.901 233.279 325.16 233.539C325.419 233.798 325.839 233.798 326.098 233.538L328.151 231.486C328.41 231.227 328.41 230.806 328.151 230.547C327.892 230.288 327.472 230.288 327.212 230.547Z"/>
</mask>
<path d="M327.212 230.547L325.16 232.6C324.901 232.859 324.901 233.279 325.16 233.539C325.419 233.798 325.839 233.798 326.098 233.538L328.151 231.486C328.41 231.227 328.41 230.806 328.151 230.547C327.892 230.288 327.472 230.288 327.212 230.547Z" fill="#E1E4E5" stroke="#5C5D66" stroke-width="1.00889" mask="url(#path-21-inside-2_57_436)"/>
<path d="M379.224 182.539C379.156 182.44 384.12 178.904 390.317 174.654C396.512 170.396 401.596 167.027 401.664 167.125C401.732 167.224 396.766 170.753 390.571 175.01C384.369 179.27 379.292 182.637 379.224 182.539Z" fill="white"/>
<path d="M385.713 126.111H385.784C386.206 131.83 390.644 131.918 390.644 131.918C390.644 131.918 385.75 132.01 385.75 138.619C385.75 132.01 380.855 131.918 380.855 131.918C380.855 131.918 385.292 131.83 385.713 126.111Z" fill="#E1E4E5"/>
<path d="M223.511 166.454L206.128 230.004L212.329 222.866C210.036 224.088 207.376 225.024 204.431 225.689C201.487 226.354 198.284 226.734 194.932 226.911C191.581 227.087 188.093 227.06 184.51 226.911C180.941 226.761 177.291 226.49 173.586 226.178H173.572C168.104 225.716 163.299 229.76 162.825 235.229C162.377 240.44 166.081 245.054 171.157 245.882C174.984 246.493 178.865 247.063 182.855 247.524C186.844 247.985 190.929 248.325 195.163 248.42C199.397 248.514 203.78 248.352 208.313 247.7C212.832 247.049 217.527 245.869 222.114 243.887C225.045 242.625 227.135 240.21 228.085 237.401L228.302 236.736L249.16 174.23C251.508 167.201 247.708 159.615 240.678 157.267C233.649 154.919 226.063 158.719 223.715 165.749C223.647 165.979 223.566 166.237 223.511 166.454Z" fill="#F8AE9D"/>
<path d="M262.146 253.753C262.376 255.544 263.163 256.915 263.91 256.807C264.643 256.711 265.063 255.178 264.832 253.4C264.602 251.609 263.815 250.238 263.068 250.347C262.322 250.442 261.915 251.975 262.146 253.753Z" fill="#B55E63"/>
<path fill-rule="evenodd" clip-rule="evenodd" d="M232.332 231.521C232.332 231.46 232.302 231.404 232.252 231.37C232.136 231.289 231.898 231.12 231.574 230.873C230.003 229.713 229.722 227.032 229.259 222.608C229.105 221.137 228.931 219.474 228.682 217.61C227.637 209.771 226.878 205.259 224.335 194.138C224.081 193.029 223.896 191.897 223.71 190.766C223.506 189.519 223.302 188.273 223.006 187.054C222.817 186.276 222.665 185.493 222.719 184.703C222.802 183.71 222.857 182.717 222.884 181.71C222.912 180.911 222.926 180.111 222.926 179.311V178.58C222.921 177.42 222.91 176.259 222.892 175.099C222.778 166.724 222.715 162.029 228.682 157.895C230.225 156.82 232.18 155.799 234.632 154.751C236.615 153.909 238.915 153.054 241.614 152.159C242.777 151.777 243.943 151.404 245.112 151.041L248.032 150.242L278.194 141.886C278.494 141.805 278.805 141.772 279.115 141.788C279.762 141.816 281.084 141.899 282.874 142.023L283.735 142.088C284.199 142.123 284.69 142.16 285.202 142.202C287.763 142.409 290.917 142.698 294.346 143.112C295.468 143.243 296.588 143.386 297.707 143.54C301.205 144.008 304.028 145.194 306.259 146.904C310.212 149.938 312.346 154.655 313.131 160.129C313.572 163.204 313.599 166.514 313.296 169.906C313.173 171.244 313.007 172.595 312.787 173.947C312.593 175.172 312.358 176.391 312.085 177.601C311.28 181.217 310.578 184.854 309.977 188.509L309.729 189.998C309.679 190.339 309.626 190.683 309.572 191.029C309.509 191.438 309.445 191.849 309.385 192.26C307.733 203.265 306.92 213.952 307.085 221.468L307.086 221.478L307.126 222.819C307.32 227.88 307.898 233.548 308.986 239.85C309.046 240.168 309.102 240.486 309.159 240.806C309.206 241.069 309.253 241.334 309.303 241.602C309.344 241.82 309.342 242.034 309.305 242.237C312.417 245.586 313.836 250.036 310.85 253.464C310.672 253.668 310.482 253.866 310.281 254.055C308.735 255.509 306.49 255.766 304.369 255.848L246.073 258.093C240.561 258.305 234.997 256.048 233.977 250.628C233.581 248.522 233.399 245.955 233.659 242.889C233.659 242.887 233.841 242.7 234.2 242.37C233.309 242.068 232.621 241.258 232.621 240.236C232.607 238.816 232.594 237.492 232.552 236.278C232.52 234.967 232.464 233.657 232.387 232.348C232.376 232.072 232.358 231.796 232.332 231.521Z" fill="white"/>
<mask id="mask0_57_436" style="mask-type:luminance" maskUnits="userSpaceOnUse" x="222" y="141" width="92" height="118">
<path fill-rule="evenodd" clip-rule="evenodd" d="M232.332 231.521C232.332 231.46 232.302 231.404 232.252 231.37C232.136 231.289 231.898 231.12 231.574 230.873C230.003 229.713 229.722 227.032 229.259 222.608C229.105 221.137 228.931 219.474 228.682 217.61C227.637 209.771 226.878 205.259 224.335 194.138C224.081 193.029 223.896 191.897 223.71 190.766C223.506 189.519 223.302 188.273 223.006 187.054C222.817 186.276 222.665 185.493 222.719 184.703C222.802 183.71 222.857 182.717 222.884 181.71C222.912 180.911 222.926 180.111 222.926 179.311V178.58C222.921 177.42 222.91 176.259 222.892 175.099C222.778 166.724 222.715 162.029 228.682 157.895C230.225 156.82 232.18 155.799 234.632 154.751C236.615 153.909 238.915 153.054 241.614 152.159C242.777 151.777 243.943 151.404 245.112 151.041L248.032 150.242L278.194 141.886C278.494 141.805 278.805 141.772 279.115 141.788C279.762 141.816 281.084 141.899 282.874 142.023L283.735 142.088C284.199 142.123 284.69 142.16 285.202 142.202C287.763 142.409 290.917 142.698 294.346 143.112C295.468 143.243 296.588 143.386 297.707 143.54C301.205 144.008 304.028 145.194 306.259 146.904C310.212 149.938 312.346 154.655 313.131 160.129C313.572 163.204 313.599 166.514 313.296 169.906C313.173 171.244 313.007 172.595 312.787 173.947C312.593 175.172 312.358 176.391 312.085 177.601C311.28 181.217 310.578 184.854 309.977 188.509L309.729 189.998C309.679 190.339 309.626 190.683 309.572 191.029C309.509 191.438 309.445 191.849 309.385 192.26C307.733 203.265 306.92 213.952 307.085 221.468L307.086 221.478L307.126 222.819C307.32 227.88 307.898 233.548 308.986 239.85C309.046 240.168 309.102 240.486 309.159 240.806C309.206 241.069 309.253 241.334 309.303 241.602C309.344 241.82 309.342 242.034 309.305 242.237C312.417 245.586 313.836 250.036 310.85 253.464C310.672 253.668 310.482 253.866 310.281 254.055C308.735 255.509 306.49 255.766 304.369 255.848L246.073 258.093C240.561 258.305 234.997 256.048 233.977 250.628C233.581 248.522 233.399 245.955 233.659 242.889C233.659 242.887 233.841 242.7 234.2 242.37C233.309 242.068 232.621 241.258 232.621 240.236C232.607 238.816 232.594 237.492 232.552 236.278C232.52 234.967 232.464 233.657 232.387 232.348C232.376 232.072 232.358 231.796 232.332 231.521Z" fill="#E1E4E5"/>
</mask>
<g mask="url(#mask0_57_436)">
<path d="M232.332 231.521L230.326 231.732L230.314 231.627V231.521H232.332ZM231.575 230.873L232.773 229.249L232.787 229.26L232.801 229.27L231.575 230.873ZM222.719 184.703L220.706 184.565L220.707 184.55L220.709 184.536L222.719 184.703ZM222.884 181.71L220.868 181.655V181.648L220.868 181.641L222.884 181.71ZM222.926 178.58L224.944 178.575V178.58H222.926ZM228.683 157.895L229.837 159.55L229.832 159.554L228.683 157.895ZM234.632 154.751L233.839 152.896L233.844 152.894L234.632 154.751ZM241.614 152.159L240.978 150.243L240.983 150.242L241.614 152.159ZM245.112 151.041L244.512 149.115L244.545 149.105L244.579 149.095L245.112 151.041ZM248.032 150.242L248.571 152.186L248.565 152.187L248.032 150.242ZM279.115 141.788L279.029 143.804H279.023L279.115 141.788ZM282.874 142.023L283.014 140.01L283.023 140.01L283.033 140.011L282.874 142.023ZM285.202 142.202L285.04 144.213H285.037L285.202 142.202ZM294.347 143.112L294.118 145.117L294.111 145.116L294.105 145.115L294.347 143.112ZM297.707 143.54L297.972 141.539L297.975 141.54L297.707 143.54ZM306.259 146.904L307.487 145.303L307.488 145.304L306.259 146.904ZM313.297 169.906L315.306 170.086L315.306 170.093L313.297 169.906ZM312.787 173.947L310.794 173.63L310.795 173.626L310.795 173.622L312.787 173.947ZM312.085 177.601L310.115 177.161L310.117 177.155L312.085 177.601ZM309.978 188.509L311.968 188.838L311.968 188.841L309.978 188.509ZM309.73 189.998L307.734 189.703L307.737 189.685L307.74 189.667L309.73 189.998ZM309.386 192.26L311.382 192.55L311.382 192.555L311.381 192.56L309.386 192.26ZM307.085 221.468L305.069 221.529V221.52L305.068 221.512L307.085 221.468ZM307.127 222.819L305.11 222.896V222.889L305.11 222.882L307.127 222.819ZM308.986 239.85L307.004 240.227L307.001 240.21L306.998 240.193L308.986 239.85ZM309.303 241.602L307.32 241.977L307.319 241.97L309.303 241.602ZM309.305 242.237L307.827 243.61L307.136 242.867L307.321 241.869L309.305 242.237ZM233.659 242.889H235.677V242.975L235.67 243.06L233.659 242.889ZM234.201 242.37L234.85 240.46L238.077 241.557L235.563 243.859L234.201 242.37ZM232.621 240.236L234.639 240.216V240.236H232.621ZM232.553 236.278L230.536 236.347L230.535 236.34V236.334L232.553 236.278ZM232.387 232.348L230.373 232.474L230.372 232.459L230.372 232.444L232.387 232.348ZM233.403 229.712C233.695 229.915 233.934 230.185 234.099 230.5C234.264 230.815 234.35 231.165 234.35 231.521H230.314C230.314 232.134 230.619 232.692 231.102 233.028L233.403 229.712ZM232.801 229.27C233.097 229.497 233.309 229.647 233.403 229.712L231.102 233.028C230.846 232.849 230.595 232.665 230.348 232.475L232.801 229.27ZM231.266 222.398C231.503 224.661 231.677 226.286 231.965 227.499C232.254 228.718 232.569 229.099 232.773 229.249L230.376 232.496C229.009 231.488 228.399 229.948 228.038 228.43C227.677 226.906 227.479 224.979 227.252 222.818L231.266 222.398ZM230.683 217.343C230.935 219.239 231.112 220.928 231.266 222.398L227.252 222.818C227.099 221.346 226.927 219.709 226.682 217.877L230.683 217.343ZM226.302 193.688C228.859 204.865 229.628 209.438 230.683 217.343L226.682 217.877C225.646 210.104 224.899 205.653 222.368 194.588L226.302 193.688ZM225.702 190.44C225.889 191.582 226.065 192.65 226.302 193.688L222.368 194.588C222.098 193.407 221.903 192.213 221.72 191.092L225.702 190.44ZM224.967 186.578C225.284 187.883 225.5 189.206 225.702 190.44L221.72 191.092C221.513 189.833 221.32 188.662 221.046 187.53L224.967 186.578ZM224.732 184.842C224.7 185.304 224.786 185.831 224.967 186.578L221.046 187.53C220.849 186.721 220.629 185.683 220.706 184.565L224.732 184.842ZM224.902 181.766C224.873 182.81 224.816 183.84 224.73 184.87L220.709 184.536C220.788 183.58 220.841 182.624 220.868 181.655L224.902 181.766ZM224.944 179.311C224.944 180.134 224.929 180.957 224.901 181.78L220.868 181.641C220.895 180.864 220.908 180.088 220.908 179.311H224.944ZM224.944 179.132V179.311H220.908V179.132H224.944ZM224.944 178.58V179.132H220.908V178.58H224.944ZM224.91 175.071C224.924 176.166 224.941 177.334 224.944 178.575L220.908 178.585C220.905 177.37 220.889 176.223 220.875 175.126L224.91 175.071ZM229.832 159.554C227.209 161.371 226.042 163.186 225.459 165.417C224.828 167.833 224.852 170.79 224.91 175.071L220.875 175.126C220.819 171.033 220.755 167.456 221.555 164.396C222.403 161.153 224.188 158.553 227.533 156.237L229.832 159.554ZM235.425 156.606C233.041 157.625 231.223 158.583 229.837 159.55L227.528 156.24C229.227 155.056 231.32 153.973 233.839 152.896L235.425 156.606ZM242.25 154.073C239.588 154.957 237.341 155.794 235.42 156.608L233.844 152.894C235.89 152.026 238.242 151.152 240.978 150.243L242.25 154.073ZM245.713 152.968C244.554 153.327 243.398 153.696 242.246 154.075L240.983 150.242C242.156 149.857 243.333 149.481 244.512 149.115L245.713 152.968ZM248.565 152.187L245.645 152.987L244.579 149.095L247.499 148.296L248.565 152.187ZM278.733 143.83L248.571 152.186L247.493 148.297L277.656 139.941L278.733 143.83ZM279.023 143.804C278.926 143.798 278.828 143.806 278.733 143.83L277.656 139.941C278.161 139.804 278.684 139.747 279.207 139.772L279.023 143.804ZM282.735 144.035C280.941 143.911 279.646 143.83 279.029 143.804L279.201 139.772C279.879 139.801 281.227 139.886 283.014 140.01L282.735 144.035ZM283.584 144.1C283.287 144.078 282.996 144.056 282.717 144.034L283.033 140.011C283.303 140.032 283.587 140.053 283.886 140.076L283.584 144.1ZM285.037 144.213C284.534 144.172 284.049 144.135 283.584 144.1L283.886 140.076C284.35 140.111 284.848 140.148 285.367 140.191L285.037 144.213ZM294.105 145.115C291.089 144.755 288.067 144.454 285.04 144.213L285.364 140.191C287.944 140.399 291.125 140.691 294.588 141.109L294.105 145.115ZM297.179 145.505C296.122 145.364 295.101 145.229 294.118 145.117L294.575 141.107C295.602 141.224 296.66 141.365 297.711 141.505L297.179 145.505ZM297.441 145.54L297.179 145.505L297.711 141.505L297.972 141.539L297.441 145.54ZM305.032 148.506C303.108 147.031 300.625 145.967 297.439 145.539L297.975 141.54C301.785 142.051 304.948 143.357 307.487 145.303L305.032 148.506ZM311.134 160.415C310.395 155.264 308.429 151.113 305.031 148.505L307.488 145.304C311.994 148.763 314.297 154.045 315.129 159.843L311.134 160.415ZM311.287 169.727C311.579 166.456 311.548 163.306 311.134 160.415L315.129 159.843C315.596 163.102 315.62 166.572 315.306 170.086L311.287 169.727ZM310.795 173.622C311.007 172.323 311.167 171.018 311.287 169.72L315.306 170.093C315.178 171.47 315.008 172.868 314.779 174.271L310.795 173.622ZM310.117 177.155C310.381 175.988 310.607 174.812 310.794 173.63L314.78 174.263C314.579 175.532 314.336 176.795 314.052 178.048L310.117 177.155ZM307.987 188.18C308.593 184.488 309.303 180.813 310.115 177.161L314.054 178.042C313.258 181.62 312.562 185.221 311.968 188.838L307.987 188.18ZM307.74 189.667L307.987 188.178L311.968 188.841L311.72 190.33L307.74 189.667ZM307.579 190.72C307.632 190.373 307.685 190.036 307.734 189.703L311.726 190.294C311.674 190.643 311.62 190.994 311.566 191.338L307.579 190.72ZM307.388 191.97C307.45 191.548 307.515 191.127 307.579 190.72L311.566 191.338C311.503 191.749 311.44 192.15 311.382 192.55L307.388 191.97ZM305.068 221.512C304.9 213.846 305.726 203.037 307.39 191.96L311.381 192.56C309.739 203.492 308.941 214.058 309.103 221.423L305.068 221.512ZM305.069 221.539L305.069 221.529L309.103 221.407V221.417L305.069 221.539ZM305.11 222.882L305.069 221.539L309.103 221.417L309.143 222.756L305.11 222.882ZM306.998 240.193C305.896 233.81 305.307 228.053 305.11 222.896L309.143 222.742C309.332 227.708 309.901 233.286 310.975 239.507L306.998 240.193ZM307.173 241.158C307.116 240.835 307.062 240.53 307.004 240.227L310.968 239.473C311.032 239.805 311.09 240.136 311.147 240.454L307.173 241.158ZM307.319 241.97C307.267 241.693 307.219 241.42 307.173 241.158L311.147 240.454C311.193 240.718 311.239 240.975 311.287 241.233L307.319 241.97ZM307.321 241.869C307.314 241.905 307.314 241.941 307.32 241.977L311.285 241.226C311.374 241.692 311.372 242.159 311.289 242.604L307.321 241.869ZM310.783 240.863C312.517 242.729 313.887 245.011 314.347 247.446C314.821 249.955 314.308 252.566 312.372 254.789L309.329 252.138C310.378 250.934 310.649 249.607 310.382 248.196C310.101 246.713 309.205 245.094 307.827 243.61L310.783 240.863ZM312.372 254.789C312.151 255.043 311.915 255.288 311.664 255.525L308.899 252.585C309.05 252.443 309.193 252.294 309.329 252.138L312.372 254.789ZM311.664 255.525C309.512 257.548 306.538 257.784 304.447 257.864L304.291 253.832C306.443 253.749 307.958 253.47 308.899 252.585L311.664 255.525ZM304.447 257.864L246.151 260.109L245.996 256.077L304.291 253.832L304.447 257.864ZM246.151 260.109C243.123 260.226 239.97 259.673 237.368 258.241C234.718 256.782 232.633 254.394 231.994 251.001L235.96 250.255C236.342 252.283 237.549 253.734 239.314 254.705C241.126 255.703 243.511 256.173 245.996 256.077L246.151 260.109ZM231.994 251.001C231.563 248.71 231.374 245.961 231.649 242.719L235.67 243.06C235.425 245.95 235.599 248.334 235.96 250.255L231.994 251.001ZM231.641 242.889C231.641 242.499 231.757 242.211 231.787 242.136C231.877 241.915 232.005 241.71 232.166 241.533L232.206 241.49L232.256 241.438C232.446 241.249 232.64 241.064 232.838 240.882L235.563 243.859C235.399 244.009 235.279 244.124 235.204 244.196L235.13 244.27L235.13 244.271L235.157 244.241C235.162 244.236 235.183 244.213 235.21 244.181C235.219 244.169 235.254 244.127 235.295 244.071C235.391 243.938 235.47 243.795 235.531 243.643C235.552 243.588 235.595 243.459 235.615 243.384C235.638 243.282 235.672 243.035 235.677 242.889H231.641ZM234.639 240.236C234.639 240.278 234.649 240.308 234.675 240.342C234.721 240.397 234.782 240.438 234.85 240.46L233.551 244.281C231.953 243.737 230.603 242.234 230.603 240.236H234.639ZM234.569 236.21C234.611 237.452 234.625 238.801 234.639 240.216L230.603 240.256C230.59 238.831 230.576 237.532 230.536 236.347L234.569 236.21ZM234.401 232.222C234.472 233.356 234.528 234.705 234.569 236.223L230.535 236.334C230.503 235.046 230.449 233.759 230.373 232.474L234.401 232.222ZM234.339 231.31C234.373 231.638 234.389 231.97 234.402 232.252L230.372 232.444C230.363 232.206 230.348 231.969 230.326 231.732L234.339 231.31Z" fill="#E1E4E5"/>
</g>
<path d="M277.984 143.262C277.984 143.262 275.284 153.481 265.079 156.317C252.106 159.913 250.151 155.557 250.151 155.557C250.477 153.698 250.586 151.88 250.504 149.953C250.477 149.22 250.409 148.474 250.327 147.713C250.097 145.624 249.662 143.344 249.052 140.739C248.916 140.128 248.753 139.49 248.591 138.838L248.577 138.757C257.452 135.419 264.413 130.411 268.675 123.002L269.937 122.011L270.792 121.333L271.036 121.848L271.077 123.572C271.253 131.673 272.624 136.464 277.984 143.262ZM281.601 159.429L262.109 231.302L269.059 223.23C266.487 224.613 263.506 225.664 260.209 226.421C256.912 227.166 253.312 227.605 249.566 227.791C245.808 227.991 241.891 227.951 237.881 227.791C233.872 227.618 229.783 227.326 225.629 226.967H225.603C219.47 226.435 214.076 231.022 213.549 237.206C213.047 243.097 217.202 248.322 222.899 249.254C227.185 249.945 231.551 250.596 236.022 251.115C240.493 251.634 245.082 252.033 249.83 252.139C254.578 252.245 259.497 252.059 264.575 251.315C269.652 250.57 274.914 249.24 280.058 247.006C283.355 245.57 285.689 242.844 286.758 239.679L287.008 238.935L310.378 168.231C313.003 160.28 308.756 151.703 300.869 149.043C292.996 146.397 284.476 150.679 281.838 158.631C281.759 158.883 281.667 159.189 281.601 159.429Z" fill="#F8AE9D"/>
<path fill-rule="evenodd" clip-rule="evenodd" d="M52.001 258.895V255.133C52.001 252.974 54.1691 251.224 56.8341 251.213H392.712C395.391 251.213 397.545 252.974 397.545 255.133V258.895C397.545 261.065 395.377 262.815 392.712 262.815H377.673C376.655 262.815 375.68 263.22 374.96 263.939C374.241 264.659 373.837 265.634 373.837 266.652C373.837 267.321 372.737 267.86 371.38 267.86H69.0724C67.7291 267.86 66.6299 267.321 66.6299 266.652C66.6299 264.533 64.9122 262.815 62.7931 262.815H56.8341C54.155 262.815 52.001 261.065 52.001 258.895Z" fill="white"/>
<path d="M56.8342 251.213L56.8301 250.204H56.8342V251.213ZM53.01 255.133V258.895H50.9922V255.133H53.01ZM56.8377 252.222C54.5162 252.231 53.01 253.721 53.01 255.133H50.9922C50.9922 252.227 53.8226 250.216 56.8301 250.204L56.8377 252.222ZM392.712 252.222H56.8342V250.204H392.712V252.222ZM396.537 255.133C396.537 253.716 395.039 252.222 392.712 252.222V250.204C395.743 250.204 398.554 252.232 398.554 255.133H396.537ZM396.537 258.895V255.133H398.554V258.895H396.537ZM392.712 261.807C395.029 261.807 396.537 260.319 396.537 258.895H398.554C398.554 261.811 395.725 263.824 392.712 263.824V261.807ZM377.673 261.807H392.712V263.824H377.673V261.807ZM371.38 266.851C371.939 266.851 372.394 266.738 372.672 266.601C373.014 266.433 372.828 266.39 372.828 266.652H374.846C374.846 267.582 374.109 268.144 373.562 268.412C372.951 268.712 372.178 268.869 371.38 268.869V266.851ZM69.0725 266.851H371.38V268.869H69.0725V266.851ZM67.6389 266.652C67.6389 266.391 67.4527 266.434 67.7937 266.602C68.0702 266.739 68.5216 266.851 69.0725 266.851V268.869C68.2795 268.869 67.5097 268.712 66.9008 268.412C66.3566 268.143 65.6211 267.582 65.6211 266.652H67.6389ZM56.8342 261.807H62.7932V263.824H56.8342V261.807ZM53.01 258.895C53.01 260.321 54.5051 261.807 56.8342 261.807V263.824C53.805 263.824 50.9922 261.809 50.9922 258.895H53.01ZM65.6211 266.652C65.6211 266.28 65.5479 265.913 65.4058 265.57C65.2637 265.227 65.0554 264.915 64.7928 264.652C64.5302 264.39 64.2184 264.181 63.8753 264.039C63.5322 263.897 63.1645 263.824 62.7932 263.824V261.807C65.4692 261.807 67.6389 263.976 67.6389 266.652H65.6211ZM377.673 263.824C377.302 263.824 376.934 263.897 376.591 264.039C376.248 264.182 375.936 264.39 375.673 264.652C375.411 264.915 375.203 265.227 375.061 265.57C374.919 265.913 374.845 266.28 374.846 266.652H372.828C372.828 263.976 374.997 261.807 377.673 261.807V263.824Z" fill="#0F111A"/>
<path d="M92.6521 157.918L108.394 224.495L108.815 226.245L109.873 230.724C110.095 231.666 110.628 232.505 111.387 233.106C112.145 233.707 113.085 234.034 114.053 234.035H220.106C222.874 234.035 224.937 231.443 224.299 228.742L207.078 155.937C206.856 154.995 206.322 154.156 205.564 153.555C204.805 152.954 203.866 152.626 202.898 152.626H96.8456C94.0636 152.64 92.0145 155.232 92.6521 157.918Z" fill="#0F111A"/>
<path d="M144.178 196.187C144.681 200.774 148.806 204.479 153.393 204.479C157.979 204.479 161.277 200.761 160.775 196.187C160.273 191.601 156.148 187.896 151.561 187.896C146.974 187.896 143.676 191.601 144.178 196.187Z" fill="white"/>
<path d="M198.678 152.638L217.012 234.047H220.106C222.874 234.047 224.923 231.455 224.285 228.754L207.064 155.949C206.843 155.007 206.309 154.168 205.551 153.567C204.792 152.966 203.853 152.639 202.885 152.638H198.678ZM168.034 233.388L170.943 249.662H161.333L158.424 233.388H168.034Z" fill="#31446C"/>
<path d="M184.304 248.193L182.133 245.14C181.748 244.602 181.241 244.165 180.653 243.862C180.066 243.56 179.415 243.403 178.754 243.403H149.618C148.862 243.401 148.119 243.607 147.473 244C146.826 244.393 146.301 244.956 145.954 245.629L144.488 248.437C143.796 249.754 144.76 251.314 146.239 251.314H182.689C184.291 251.314 185.227 249.496 184.304 248.193Z" fill="#31446C"/>
<path fill-rule="evenodd" clip-rule="evenodd" d="M261.444 122.803V134.649L270.107 127.645C270.107 127.645 272.769 116.295 274.934 107.864C276.292 102.578 279.6 84.6871 266.282 85.5255C255.371 66.2093 223.598 78.1646 223.345 101.763C229.427 136.047 224.277 146.934 224.277 146.934C242.245 147.97 251.369 139.623 261.444 122.803Z" fill="#31446C"/>
<path fill-rule="evenodd" clip-rule="evenodd" d="M248.852 118.306L250.332 128.636L241.903 123.61C241.903 123.61 238.163 114.046 235.222 106.965C233.377 102.525 228.257 87.3374 239.975 86.4041C247.076 68.1972 276.277 74.6521 279.446 95.1981C278.426 125.854 284.277 134.705 284.277 134.705C268.738 137.853 259.739 131.714 248.852 118.306Z" fill="#31446C"/>
<path d="M243.975 141.194C243.975 141.194 273.343 138.333 271.28 120.071C269.215 101.808 271.613 89.1398 252.777 90.1951C233.941 91.2504 231.086 98.6284 230.294 104.892C229.503 111.154 236.286 141.467 243.975 141.194Z" fill="#F8AE9D"/>
<path fill-rule="evenodd" clip-rule="evenodd" d="M270.247 109.893C266.525 110.496 266.977 112.916 265.965 112.705C260.827 111.632 240.029 113.047 237.35 101.81C234.018 108.831 233.204 110.557 225.866 112.441V91.8694L272.275 87.4954C272.275 87.4954 271.555 109.68 270.247 109.893Z" fill="#31446C"/>
<path opacity="0.76" fill-rule="evenodd" clip-rule="evenodd" d="M92.3129 57.0022L110.977 85.7555H73.6484L92.3129 57.0022Z" fill="url(#paint2_linear_57_436)"/>
<path opacity="0.76" fill-rule="evenodd" clip-rule="evenodd" d="M344.031 71.631L356.642 91.3043H331.42L344.031 71.631Z" fill="url(#paint3_linear_57_436)"/>
<path d="M365.809 228.648H374.105C374.618 228.648 375.126 228.75 375.601 228.946C376.075 229.143 376.506 229.431 376.869 229.794C377.232 230.157 377.52 230.588 377.717 231.062C377.913 231.537 378.014 232.045 378.014 232.558V236.531C378.014 240.885 374.485 244.414 370.132 244.414H365.809C365.218 244.405 364.654 244.164 364.239 243.742C363.823 243.321 363.591 242.753 363.591 242.162C363.591 241.57 363.823 241.002 364.239 240.581C364.654 240.16 365.218 239.919 365.809 239.91H370.132C371.028 239.91 371.887 239.554 372.52 238.92C373.154 238.287 373.51 237.427 373.51 236.531V233.153H365.809C365.218 233.144 364.654 232.903 364.239 232.481C363.823 232.06 363.591 231.492 363.591 230.901C363.591 230.309 363.823 229.741 364.239 229.32C364.654 228.898 365.218 228.657 365.809 228.648Z" fill="white" stroke="#5C5D66" stroke-width="2.01778" stroke-linecap="round" stroke-linejoin="round"/>
<path fill-rule="evenodd" clip-rule="evenodd" d="M338.266 226.495C337.387 226.495 336.544 226.845 335.922 227.466C335.3 228.088 334.951 228.931 334.951 229.811V238.098C334.951 243.784 339.042 248.515 344.441 249.508C344.898 249.592 345.249 249.979 345.25 250.444C345.25 250.949 345.66 251.358 346.164 251.358H358.816C358.941 251.358 359.063 251.333 359.178 251.286C359.293 251.238 359.397 251.169 359.485 251.081C359.572 250.993 359.642 250.889 359.69 250.775C359.737 250.66 359.762 250.537 359.762 250.413C359.762 249.941 360.112 249.546 360.573 249.448C365.821 248.336 369.758 243.677 369.758 238.098V229.811C369.758 229.375 369.673 228.944 369.506 228.542C369.34 228.14 369.095 227.774 368.788 227.467C368.48 227.159 368.114 226.914 367.712 226.748C367.31 226.581 366.879 226.495 366.444 226.495H338.266Z" fill="white" stroke="#5C5D66" stroke-width="2.01778" stroke-linecap="round" stroke-linejoin="round"/>
<path d="M425 57C432.732 57 439 50.732 439 43C439 35.268 432.732 29 425 29C417.268 29 411 35.268 411 43C411 50.732 417.268 57 425 57Z" stroke="url(#paint4_linear_57_436)" stroke-width="1.4" stroke-miterlimit="10"/>
</g>
<defs>
<linearGradient id="paint0_linear_57_436" x1="115.711" y1="275.607" x2="113.535" y2="36.448" gradientUnits="userSpaceOnUse">
<stop stop-color="white"/>
<stop offset="1" stop-color="#EEEEEE"/>
</linearGradient>
<linearGradient id="paint1_linear_57_436" x1="242.458" y1="120.093" x2="241.727" y2="39.4334" gradientUnits="userSpaceOnUse">
<stop stop-color="white"/>
<stop offset="1" stop-color="#EEEEEE"/>
</linearGradient>
<linearGradient id="paint2_linear_57_436" x1="93.1089" y1="101.876" x2="92.4259" y2="25.7191" gradientUnits="userSpaceOnUse">
<stop stop-color="#FBF3F3"/>
<stop offset="1" stop-color="#EEEEEE"/>
</linearGradient>
<linearGradient id="paint3_linear_57_436" x1="344.569" y1="102.334" x2="344.096" y2="50.2269" gradientUnits="userSpaceOnUse">
<stop stop-color="white"/>
<stop offset="1" stop-color="#EEEEEE"/>
</linearGradient>
<linearGradient id="paint4_linear_57_436" x1="411" y1="57" x2="411" y2="29" gradientUnits="userSpaceOnUse">
<stop stop-color="#108686"/>
<stop offset="1" stop-color="#CCFF66"/>
</linearGradient>
<clipPath id="clip0_57_436">
<rect width="454" height="291" fill="white"/>
</clipPath>
</defs>
</svg>
